<svg width="121" height="41" viewBox="0 0 121 41" fill="none" xmlns="http://www.w3.org/2000/svg">
<path d="M0 6.47922C0 3.04754 2.73431 0.265625 6.10726 0.265625H114.893C118.266 0.265625 121 3.04755 121 6.47922V34.052C121 37.4837 118.266 40.2656 114.893 40.2656H6.10726C2.73431 40.2656 0 37.4837 0 34.052V6.47922Z" fill="#F5F5F5"/>
<path d="M38.2032 15.0229V8.49681H39.9745C41.0868 8.49681 41.9292 8.75774 42.5018 9.27958C43.0773 9.80143 43.3651 10.6009 43.3651 11.6779C43.3651 12.7277 43.0535 13.5484 42.4302 14.14C41.807 14.7286 40.9645 15.0229 39.9029 15.0229H38.2032ZM38.9546 9.18856V14.3312H39.9119C40.7528 14.3312 41.4074 14.1127 41.8756 13.6758C42.3437 13.2389 42.5778 12.579 42.5778 11.6961C42.5778 10.8193 42.3616 10.1822 41.9292 9.78474C41.4968 9.38729 40.8393 9.18856 39.9566 9.18856H38.9546Z" fill="#0E0E0E"/>
<path d="M46.4023 15.1321C45.6896 15.1321 45.132 14.9167 44.7294 14.4859C44.3268 14.052 44.1255 13.4725 44.1255 12.7474C44.1255 11.998 44.3492 11.3958 44.7965 10.9407C45.2438 10.4826 45.8029 10.2535 46.4739 10.2535C47.1598 10.2535 47.7025 10.4765 48.1021 10.9225C48.5047 11.3654 48.706 11.9495 48.706 12.6746C48.706 13.3755 48.4987 13.961 48.0842 14.4313C47.6727 14.8985 47.1121 15.1321 46.4023 15.1321ZM46.4426 14.4859C46.9048 14.4859 47.2716 14.3296 47.543 14.0171C47.8173 13.7016 47.9545 13.2632 47.9545 12.7019C47.9545 12.1679 47.8173 11.7356 47.543 11.4049C47.2716 11.0711 46.9048 10.9043 46.4426 10.9043C45.9804 10.9043 45.6031 11.0727 45.3109 11.4094C45.0216 11.7432 44.877 12.1801 44.877 12.7201C44.877 13.2875 45.0216 13.7244 45.3109 14.0308C45.6031 14.3342 45.9804 14.4859 46.4426 14.4859Z" fill="#0E0E0E"/>
<path d="M55.5856 10.3627L54.2123 15.0229H53.4519L52.5081 11.687C52.4842 11.5991 52.4678 11.5414 52.4589 11.5141C52.4529 11.4838 52.444 11.4337 52.432 11.3639H52.4142C52.3992 11.4337 52.3858 11.4853 52.3739 11.5187C52.3649 11.552 52.3485 11.6051 52.3247 11.6779L51.3004 15.0229H50.5489L49.1622 10.3627H49.9316L50.8799 13.8078C50.8948 13.8594 50.9067 13.9079 50.9157 13.9534C50.9246 13.9989 50.9351 14.0551 50.947 14.1218H50.9738C50.9887 14.052 51.0021 13.9959 51.0141 13.9534C51.026 13.9079 51.0409 13.8563 51.0588 13.7987L52.1145 10.3627H52.8033L53.7516 13.8169C53.7635 13.8594 53.7755 13.9064 53.7874 13.958C53.7993 14.0065 53.8127 14.0611 53.8276 14.1218H53.8545C53.8694 14.0611 53.8798 14.0141 53.8858 13.9807C53.8947 13.9443 53.9097 13.8897 53.9305 13.8169L54.8609 10.3627H55.5856Z" fill="#0E0E0E"/>
<path d="M60.1571 15.0229H59.4235V12.2559C59.4235 11.7978 59.337 11.458 59.164 11.2365C58.9911 11.012 58.7331 10.8997 58.3902 10.8997C58.0025 10.8997 57.6879 11.0393 57.4464 11.3184C57.2078 11.5945 57.0885 11.9434 57.0885 12.3651V15.0229H56.3549V10.3627H57.0885V11.0272H57.1064C57.2794 10.7693 57.4911 10.5766 57.7416 10.4492C57.9921 10.3187 58.2814 10.2535 58.6094 10.2535C59.1104 10.2535 59.4936 10.4188 59.759 10.7495C60.0244 11.0772 60.1571 11.552 60.1571 12.174V15.0229Z" fill="#0E0E0E"/>
<path d="M61.4543 15.0229V8.12364H62.1879V15.0229H61.4543Z" fill="#0E0E0E"/>
<path d="M65.5471 15.1321C64.8344 15.1321 64.2768 14.9167 63.8742 14.4859C63.4716 14.052 63.2703 13.4725 63.2703 12.7474C63.2703 11.998 63.494 11.3958 63.9413 10.9407C64.3886 10.4826 64.9477 10.2535 65.6187 10.2535C66.3046 10.2535 66.8473 10.4765 67.2469 10.9225C67.6495 11.3654 67.8508 11.9495 67.8508 12.6746C67.8508 13.3755 67.6435 13.961 67.229 14.4313C66.8175 14.8985 66.2569 15.1321 65.5471 15.1321ZM65.5874 14.4859C66.0496 14.4859 66.4164 14.3296 66.6878 14.0171C66.9621 13.7016 67.0993 13.2632 67.0993 12.7019C67.0993 12.1679 66.9621 11.7356 66.6878 11.4049C66.4164 11.0711 66.0496 10.9043 65.5874 10.9043C65.1252 10.9043 64.7479 11.0727 64.4557 11.4094C64.1664 11.7432 64.0218 12.1801 64.0218 12.7201C64.0218 13.2875 64.1664 13.7244 64.4557 14.0308C64.7479 14.3342 65.1252 14.4859 65.5874 14.4859Z" fill="#0E0E0E"/>
<path d="M72.1763 15.0229H71.4427V14.404H71.4248C71.2697 14.6376 71.0729 14.8181 70.8343 14.9455C70.5987 15.0699 70.3378 15.1321 70.0515 15.1321C69.5953 15.1321 69.2374 15.0077 68.978 14.759C68.7215 14.5102 68.5933 14.1992 68.5933 13.826C68.5933 13.3891 68.7275 13.0508 68.9959 12.8111C69.2643 12.5684 69.64 12.4182 70.1231 12.3606L71.4427 12.2059V11.91C71.4427 11.5733 71.3562 11.3215 71.1832 11.1546C71.0133 10.9847 70.7792 10.8997 70.481 10.8997C70.1977 10.8997 69.9636 10.965 69.7787 11.0954C69.5938 11.2228 69.4521 11.4019 69.3537 11.6324L68.7141 11.3639C68.8632 11.012 69.0928 10.7389 69.4029 10.5448C69.7161 10.3506 70.0888 10.2535 70.5212 10.2535C71.055 10.2535 71.4635 10.3991 71.7468 10.6904C72.0331 10.9786 72.1763 11.3836 72.1763 11.9055V15.0229ZM71.4427 13.1297V12.8111L70.1723 12.9568C69.889 12.9901 69.6803 13.0736 69.5461 13.2071C69.4119 13.3375 69.3448 13.512 69.3448 13.7304C69.3448 13.9701 69.4223 14.1628 69.5774 14.3084C69.7325 14.451 69.9352 14.5223 70.1857 14.5223C70.5615 14.5223 70.8641 14.3918 71.0938 14.1309C71.3264 13.867 71.4427 13.5332 71.4427 13.1297Z" fill="#0E0E0E"/>
<path d="M76.6985 14.3403C76.5286 14.5981 76.3109 14.7954 76.0455 14.9319C75.7831 15.0654 75.4908 15.1321 75.1687 15.1321C74.5276 15.1321 74.0311 14.9243 73.6792 14.5086C73.3303 14.09 73.1559 13.5211 73.1559 12.802C73.1559 12.0132 73.3542 11.3912 73.7508 10.9361C74.1474 10.481 74.6648 10.2535 75.3029 10.2535C75.6131 10.2535 75.8874 10.3111 76.126 10.4264C76.3675 10.5417 76.5584 10.6995 76.6985 10.8997H76.7164V8.12364H77.45V15.0229H76.7164V14.3403H76.6985ZM73.9073 12.7656C73.9073 13.2935 74.0266 13.7122 74.2652 14.0217C74.5067 14.3312 74.8392 14.4859 75.2627 14.4859C75.71 14.4859 76.0634 14.3372 76.3228 14.0399C76.5852 13.7426 76.7164 13.3679 76.7164 12.9158V12.2286C76.7164 11.8585 76.5897 11.5444 76.3362 11.2866C76.0857 11.0287 75.7607 10.8997 75.3611 10.8997C74.9168 10.8997 74.5634 11.059 74.301 11.3776C74.0386 11.6961 73.9073 12.1588 73.9073 12.7656Z" fill="#0E0E0E"/>
<path d="M82.9564 15.1321C82.2437 15.1321 81.686 14.9167 81.2835 14.4859C80.8809 14.052 80.6796 13.4725 80.6796 12.7474C80.6796 11.998 80.9032 11.3958 81.3506 10.9407C81.7979 10.4826 82.357 10.2535 83.028 10.2535C83.7138 10.2535 84.2566 10.4765 84.6562 10.9225C85.0588 11.3654 85.26 11.9495 85.26 12.6746C85.26 13.3755 85.0528 13.961 84.6383 14.4313C84.2268 14.8985 83.6661 15.1321 82.9564 15.1321ZM82.9967 14.4859C83.4589 14.4859 83.8257 14.3296 84.097 14.0171C84.3714 13.7016 84.5086 13.2632 84.5086 12.7019C84.5086 12.1679 84.3714 11.7356 84.097 11.4049C83.8257 11.0711 83.4589 10.9043 82.9967 10.9043C82.5344 10.9043 82.1572 11.0727 81.865 11.4094C81.5757 11.7432 81.4311 12.1801 81.4311 12.7201C81.4311 13.2875 81.5757 13.7244 81.865 14.0308C82.1572 14.3342 82.5344 14.4859 82.9967 14.4859Z" fill="#0E0E0E"/>
<path d="M90.1447 15.0229H89.4111V12.2559C89.4111 11.7978 89.3246 11.458 89.1516 11.2365C88.9787 11.012 88.7207 10.8997 88.3778 10.8997C87.9901 10.8997 87.6755 11.0393 87.434 11.3184C87.1954 11.5945 87.0761 11.9434 87.0761 12.3651V15.0229H86.3425V10.3627H87.0761V11.0272H87.094C87.267 10.7693 87.4787 10.5766 87.7292 10.4492C87.9797 10.3187 88.2689 10.2535 88.597 10.2535C89.0979 10.2535 89.4811 10.4188 89.7465 10.7495C90.0119 11.0772 90.1447 11.552 90.1447 12.174V15.0229Z" fill="#0E0E0E"/>
<path d="M95.9686 14.7271C95.8344 14.8636 95.6868 14.9637 95.5258 15.0275C95.3647 15.0912 95.1754 15.123 94.9577 15.123C94.5969 15.123 94.318 15.0214 94.1212 14.8181C93.9244 14.6118 93.826 14.3175 93.826 13.9352V10.9998H93.0387V10.3627H93.826V9.26138L94.5596 9.1294V10.3627H95.7852V10.9998H94.5596V13.8715C94.5596 14.093 94.6013 14.2538 94.6848 14.3539C94.7683 14.454 94.8995 14.5041 95.0785 14.5041C95.1679 14.5041 95.2529 14.4859 95.3334 14.4495C95.4169 14.4131 95.5034 14.3433 95.5929 14.2401L95.9686 14.7271Z" fill="#0E0E0E"/>
<path d="M100.665 15.0229H99.9318V12.2559C99.9318 11.7978 99.8453 11.458 99.6723 11.2365C99.5023 11.012 99.2444 10.8997 98.8985 10.8997C98.5108 10.8997 98.1962 11.0393 97.9547 11.3184C97.7161 11.5945 97.5968 11.9449 97.5968 12.3697V15.0229H96.8632V8.12364H97.5968V11.0272H97.6147C97.7877 10.7693 97.9994 10.5766 98.2499 10.4492C98.5004 10.3187 98.7896 10.2535 99.1177 10.2535C99.6186 10.2535 100.002 10.4173 100.267 10.745C100.533 11.0727 100.665 11.549 100.665 12.174V15.0229Z" fill="#0E0E0E"/>
<path d="M105.715 12.8248H102.41C102.41 13.4012 102.544 13.823 102.812 14.09C103.084 14.3539 103.406 14.4859 103.779 14.4859C104.059 14.4859 104.305 14.4207 104.517 14.2902C104.731 14.1567 104.909 13.9595 105.049 13.6986L105.648 14.008C105.487 14.3418 105.244 14.6133 104.919 14.8227C104.597 15.029 104.201 15.1321 103.729 15.1321C103.121 15.1321 102.622 14.9273 102.231 14.5177C101.843 14.1082 101.649 13.5059 101.649 12.711C101.649 12.0041 101.846 11.4185 102.24 10.9543C102.634 10.4871 103.137 10.2535 103.752 10.2535C104.375 10.2535 104.858 10.4461 105.201 10.8315C105.544 11.2137 105.715 11.7477 105.715 12.4334V12.8248ZM104.964 12.2013C104.964 11.7978 104.855 11.4807 104.637 11.2502C104.42 11.0165 104.12 10.8997 103.738 10.8997C103.369 10.8997 103.066 11.0241 102.83 11.2729C102.598 11.5217 102.459 11.8312 102.414 12.2013H104.964Z" fill="#0E0E0E"/>
<path d="M37.5501 32.887L42.3273 19.8348H44.7249L49.4664 32.887H47.1762L46.0668 29.7923H40.8959L39.8313 32.887H37.5501ZM41.4685 27.9537H45.4853L43.7319 22.7747C43.6842 22.6412 43.6424 22.5229 43.6066 22.4198C43.5768 22.3105 43.541 22.177 43.4993 22.0193H43.4546C43.4068 22.1649 43.3681 22.2923 43.3382 22.4015C43.3084 22.5108 43.2697 22.6352 43.222 22.7747L41.4685 27.9537Z" fill="#0E0E0E"/>
<path d="M51.8919 31.9131H51.8561V37.174H49.7716V23.5666H51.8561V24.8955H51.8919C52.2557 24.3797 52.697 23.9944 53.2159 23.7395C53.7407 23.4786 54.3282 23.3481 54.9783 23.3481C56.195 23.3481 57.1433 23.7577 57.8232 24.5769C58.5031 25.3961 58.843 26.5369 58.843 27.9992C58.843 29.5284 58.4613 30.7632 57.6979 31.7037C56.9405 32.6382 55.9266 33.1054 54.6562 33.1054C54.0658 33.1054 53.538 33.0053 53.0728 32.8051C52.6135 32.6048 52.2199 32.3075 51.8919 31.9131ZM51.8292 27.8263V28.9731C51.8292 29.6588 52.0529 30.2322 52.5002 30.6934C52.9535 31.1546 53.5231 31.3852 54.2089 31.3852C54.9843 31.3852 55.5926 31.0848 56.0339 30.4841C56.4813 29.8833 56.7049 29.0733 56.7049 28.0539C56.7049 27.0648 56.4991 26.3214 56.0876 25.8239C55.6821 25.3202 55.1214 25.0684 54.4057 25.0684C53.6483 25.0684 53.028 25.3263 52.5449 25.8421C52.0678 26.3579 51.8292 27.0193 51.8292 27.8263Z" fill="#0E0E0E"/>
<path d="M61.7964 31.9131H61.7606V37.174H59.6761V23.5666H61.7606V24.8955H61.7964C62.1602 24.3797 62.6015 23.9944 63.1204 23.7395C63.6452 23.4786 64.2327 23.3481 64.8828 23.3481C66.0995 23.3481 67.0478 23.7577 67.7277 24.5769C68.4076 25.3961 68.7475 26.5369 68.7475 27.9992C68.7475 29.5284 68.3658 30.7632 67.6024 31.7037C66.845 32.6382 65.8311 33.1054 64.5607 33.1054C63.9703 33.1054 63.4424 33.0053 62.9772 32.8051C62.518 32.6048 62.1244 32.3075 61.7964 31.9131ZM61.7337 27.8263V28.9731C61.7337 29.6588 61.9574 30.2322 62.4047 30.6934C62.858 31.1546 63.4275 31.3852 64.1134 31.3852C64.8888 31.3852 65.4971 31.0848 65.9384 30.4841C66.3857 29.8833 66.6094 29.0733 66.6094 28.0539C66.6094 27.0648 66.4036 26.3214 65.9921 25.8239C65.5866 25.3202 65.0259 25.0684 64.3102 25.0684C63.5528 25.0684 62.9325 25.3263 62.4494 25.8421C61.9723 26.3579 61.7337 27.0193 61.7337 27.8263Z" fill="#0E0E0E"/>
<path d="M72.3908 30.4204L74.2426 29.4738C74.511 30.0623 74.8748 30.5023 75.3341 30.7935C75.7993 31.0848 76.342 31.2304 76.9623 31.2304C77.7018 31.2304 78.2714 31.0666 78.671 30.7389C79.0765 30.4113 79.2793 29.9531 79.2793 29.3645C79.2793 28.7941 79.0795 28.339 78.6799 27.9992C78.2803 27.6594 77.666 27.3894 76.837 27.1892C75.4891 26.8676 74.514 26.4125 73.9116 25.8239C73.3092 25.2292 73.0081 24.4313 73.0081 23.4301C73.0081 22.2347 73.4166 21.3032 74.2337 20.6358C75.0567 19.9622 76.0706 19.6255 77.2754 19.6255C78.1819 19.6255 78.9811 19.8287 79.673 20.2353C80.3648 20.6358 80.9195 21.2335 81.3369 22.0284L79.5388 22.9204C79.2644 22.4046 78.9394 22.0344 78.5636 21.8099C78.1879 21.5854 77.7316 21.4731 77.1949 21.4731C76.5269 21.4731 76.008 21.6279 75.6382 21.9373C75.2685 22.2407 75.0836 22.6473 75.0836 23.157C75.0836 23.6667 75.2535 24.0672 75.5935 24.3585C75.9335 24.6497 76.5448 24.8985 77.4275 25.1048C78.7873 25.4143 79.7803 25.8906 80.4065 26.5338C81.0387 27.177 81.3548 28.0417 81.3548 29.1279C81.3548 30.2869 80.9761 31.2395 80.2187 31.9859C79.4612 32.7322 78.3817 33.1054 76.9802 33.1054C75.9007 33.1054 74.9583 32.8718 74.1532 32.4046C73.354 31.9373 72.7665 31.2759 72.3908 30.4204Z" fill="#0E0E0E"/>
<path d="M87.0457 32.2589C86.7713 32.5259 86.4522 32.7322 86.0884 32.8779C85.7246 33.0235 85.3161 33.0963 84.8628 33.0963C83.9921 33.0963 83.333 32.8748 82.8857 32.4319C82.4444 31.9829 82.2237 31.3275 82.2237 30.4659V25.2231H80.685V23.5666H82.2237V21.282L84.2992 20.9088V23.5666H86.6342V25.2231H84.2992V30.3931C84.2992 30.7632 84.3708 31.0363 84.5139 31.2122C84.663 31.3882 84.8867 31.4762 85.1849 31.4762C85.3399 31.4762 85.492 31.4458 85.6411 31.3852C85.7902 31.3245 85.9483 31.2062 86.1153 31.0302L87.0457 32.2589Z" fill="#0E0E0E"/>
<path d="M91.6988 33.1054C90.2495 33.1054 89.0984 32.6716 88.2455 31.8039C87.3927 30.9361 86.9662 29.768 86.9662 28.2996C86.9722 26.813 87.4255 25.6176 88.3261 24.7134C89.2266 23.8032 90.3956 23.3481 91.833 23.3481C93.2763 23.3481 94.4154 23.7941 95.2504 24.6861C96.0854 25.5781 96.5029 26.731 96.5029 28.1449C96.5029 29.589 96.0615 30.7784 95.1788 31.7128C94.3021 32.6412 93.1421 33.1054 91.6988 33.1054ZM91.7793 31.3852C92.6023 31.3852 93.2405 31.1 93.6938 30.5296C94.147 29.9531 94.3737 29.1764 94.3737 28.1995C94.3737 27.2589 94.1441 26.5035 93.6848 25.9331C93.2315 25.3566 92.5964 25.0684 91.7793 25.0684C90.9622 25.0684 90.3091 25.3657 89.8201 25.9604C89.331 26.549 89.0865 27.3136 89.0865 28.2541C89.0865 29.231 89.328 29.9986 89.8111 30.5569C90.2942 31.1091 90.9503 31.3852 91.7793 31.3852Z" fill="#0E0E0E"/>
<path d="M102.561 25.4689C102.394 25.4022 102.221 25.3506 102.042 25.3142C101.869 25.2717 101.684 25.2505 101.487 25.2505C100.873 25.2505 100.375 25.5296 99.9929 26.0878C99.6112 26.6461 99.4204 27.3742 99.4204 28.2723V32.887H97.3359V23.5666H99.4204V25.2505H99.4562C99.6709 24.6558 99.987 24.2007 100.404 23.8852C100.822 23.5636 101.305 23.4028 101.854 23.4028C102.086 23.4028 102.301 23.421 102.498 23.4574C102.695 23.4938 102.906 23.5636 103.133 23.6667L102.561 25.4689Z" fill="#0E0E0E"/>
<path d="M111.159 28.7456H104.834C104.852 29.6437 105.09 30.3202 105.55 30.7753C106.015 31.2244 106.584 31.4489 107.258 31.4489C107.735 31.4489 108.159 31.3366 108.529 31.1121C108.898 30.8815 109.212 30.5417 109.468 30.0927L111.069 30.9756C110.652 31.6552 110.118 32.1801 109.468 32.5502C108.824 32.9204 108.063 33.1054 107.187 33.1054C105.839 33.1054 104.759 32.6928 103.948 31.8676C103.137 31.0423 102.732 29.856 102.732 28.3087C102.732 26.8342 103.146 25.6388 103.975 24.7225C104.81 23.8063 105.854 23.3481 107.106 23.3481C108.394 23.3481 109.39 23.7395 110.094 24.5223C110.804 25.3051 111.159 26.4398 111.159 27.9264V28.7456ZM109.146 27.2347C109.146 26.5065 108.967 25.9422 108.609 25.5417C108.251 25.1412 107.762 24.941 107.142 24.941C106.492 24.941 105.964 25.1625 105.559 25.6054C105.153 26.0423 104.908 26.5854 104.825 27.2347H109.146Z" fill="#0E0E0E"/>
<path d="M28.3892 7.64427H14.7433C11.6599 7.64427 9.16088 10.1868 9.16088 13.3239V27.2074C9.16088 30.3438 11.6599 32.887 14.7433 32.887H28.3892C31.4726 32.887 33.9716 30.3438 33.9716 27.2074V13.3239C33.9716 10.1868 31.4726 7.64427 28.3892 7.64427Z" fill="url(#paint0_linear_18_7)"/>
<path d="M22.4636 22.8109C22.3616 22.6539 22.2485 22.5066 22.1204 22.3755H18.9115L23.855 13.7916C24.1438 13.2902 23.9784 12.6458 23.4863 12.352C22.9929 12.0582 22.3595 12.2265 22.0721 12.7279L21.4725 13.7684L20.8729 12.7272C20.5848 12.2258 19.9515 12.0582 19.4587 12.3513C18.9659 12.6444 18.8005 13.2888 19.0893 13.7902L20.2747 15.8481L16.5152 22.3755H13.5028C12.9314 22.3755 12.469 22.8418 12.469 23.4161C12.469 23.9903 12.9314 24.4566 13.5028 24.4566H22.7337C22.8674 23.9987 22.8309 23.4876 22.5814 23.0136L22.4636 22.8109Z" fill="white"/>
<path d="M15.1058 25.8765C14.8873 25.8702 14.673 25.8947 14.4635 25.9375L14.1279 26.5202C13.8391 27.0216 14.0045 27.6659 14.4973 27.9597C14.6613 28.0579 14.8419 28.1042 15.019 28.1042C15.3739 28.1042 15.7199 27.9177 15.9115 27.5846L16.5076 26.549C16.172 26.1591 15.6875 25.894 15.1086 25.8765H15.1058Z" fill="white"/>
<path d="M29.6297 22.3755H26.4298L23.5718 17.4139L23.0459 18.3276C22.7399 18.9937 22.6986 19.7468 22.9184 20.4388L27.0343 27.5846C27.2265 27.9184 27.5718 28.1042 27.9268 28.1042C28.1039 28.1042 28.2844 28.0579 28.4485 27.9598C28.9412 27.666 29.1059 27.0216 28.8172 26.5202L27.6283 24.4566H29.6297C30.2011 24.4566 30.6635 23.9903 30.6635 23.4161C30.6635 22.8418 30.2011 22.3755 29.6297 22.3755Z" fill="white"/>
<defs>
<linearGradient id="paint0_linear_18_7" x1="60.5" y1="-1.27104" x2="60.5" y2="38.1501" gradientUnits="userSpaceOnUse">
<stop stop-color="#33BEF0"/>
<stop offset="1" stop-color="#0A85D9"/>
</linearGradient>
</defs>
</svg>
