<svg width="194" height="31" viewBox="0 0 194 31" fill="none" xmlns="http://www.w3.org/2000/svg">
<path d="M63.9219 12.9844H60.6875V23H59.375V12.9844H56.1484V11.7969H63.9219V12.9844Z" fill="url(#paint0_linear_18_5)"/>
<path d="M74.5312 15L72.1328 23H70.8047L69.1562 17.2734C69.1146 17.1224 69.0859 17.0234 69.0703 16.9766C69.0599 16.9245 69.0443 16.8385 69.0234 16.7188H68.9922C68.9661 16.8385 68.9427 16.9271 68.9219 16.9844C68.9062 17.0417 68.8776 17.1328 68.8359 17.2578L67.0469 23H65.7344L63.3125 15H64.6562L66.3125 20.9141C66.3385 21.0026 66.3594 21.0859 66.375 21.1641C66.3906 21.2422 66.4089 21.3385 66.4297 21.4531H66.4766C66.5026 21.3333 66.526 21.237 66.5469 21.1641C66.5677 21.0859 66.5938 20.9974 66.625 20.8984L68.4688 15H69.6719L71.3281 20.9297C71.349 21.0026 71.3698 21.0833 71.3906 21.1719C71.4115 21.2552 71.4349 21.349 71.4609 21.4531H71.5078C71.5339 21.349 71.5521 21.2682 71.5625 21.2109C71.5781 21.1484 71.6042 21.0547 71.6406 20.9297L73.2656 15H74.5312Z" fill="url(#paint1_linear_18_5)"/>
<path d="M76.5547 13.1953C76.2786 13.1953 76.0547 13.1042 75.8828 12.9219C75.7109 12.7344 75.625 12.5156 75.625 12.2656C75.625 12.0156 75.7109 11.7995 75.8828 11.6172C76.0547 11.4297 76.2786 11.3359 76.5547 11.3359C76.8307 11.3359 77.0547 11.4297 77.2266 11.6172C77.3984 11.7995 77.4844 12.0156 77.4844 12.2656C77.4844 12.5156 77.3984 12.7344 77.2266 12.9219C77.0547 13.1042 76.8307 13.1953 76.5547 13.1953ZM77.1797 23H75.8984V15H77.1797V23Z" fill="url(#paint2_linear_18_5)"/>
<path d="M83.75 22.4922C83.5156 22.7266 83.2578 22.8984 82.9766 23.0078C82.6953 23.1172 82.3646 23.1719 81.9844 23.1719C81.3542 23.1719 80.8672 22.9974 80.5234 22.6484C80.1797 22.2943 80.0078 21.7891 80.0078 21.1328V16.0938H78.6328V15H80.0078V13.1094L81.2891 12.8828V15H83.4297V16.0938H81.2891V21.0234C81.2891 21.4036 81.362 21.6797 81.5078 21.8516C81.6536 22.0234 81.8828 22.1094 82.1953 22.1094C82.3516 22.1094 82.5 22.0781 82.6406 22.0156C82.7865 21.9531 82.9375 21.8333 83.0938 21.6562L83.75 22.4922Z" fill="url(#paint3_linear_18_5)"/>
<path d="M89.4688 22.4922C89.2344 22.7266 88.9766 22.8984 88.6953 23.0078C88.4141 23.1172 88.0833 23.1719 87.7031 23.1719C87.0729 23.1719 86.5859 22.9974 86.2422 22.6484C85.8984 22.2943 85.7266 21.7891 85.7266 21.1328V16.0938H84.3516V15H85.7266V13.1094L87.0078 12.8828V15H89.1484V16.0938H87.0078V21.0234C87.0078 21.4036 87.0807 21.6797 87.2266 21.8516C87.3724 22.0234 87.6016 22.1094 87.9141 22.1094C88.0703 22.1094 88.2188 22.0781 88.3594 22.0156C88.5052 21.9531 88.6562 21.8333 88.8125 21.6562L89.4688 22.4922Z" fill="url(#paint4_linear_18_5)"/>
<path d="M97.5859 19.2266H91.8125C91.8125 20.2161 92.0469 20.9401 92.5156 21.3984C92.9896 21.8516 93.5521 22.0781 94.2031 22.0781C94.6927 22.0781 95.1224 21.9661 95.4922 21.7422C95.8672 21.513 96.1771 21.1745 96.4219 20.7266L97.4688 21.2578C97.1875 21.8307 96.763 22.2969 96.1953 22.6562C95.6328 23.0104 94.9401 23.1875 94.1172 23.1875C93.0547 23.1875 92.1823 22.8359 91.5 22.1328C90.8229 21.4297 90.4844 20.3958 90.4844 19.0312C90.4844 17.8177 90.8281 16.8125 91.5156 16.0156C92.2031 15.2135 93.0833 14.8125 94.1562 14.8125C95.2448 14.8125 96.0885 15.1432 96.6875 15.8047C97.2865 16.4609 97.5859 17.3776 97.5859 18.5547V19.2266ZM96.2734 18.1562C96.2734 17.4635 96.0833 16.9193 95.7031 16.5234C95.3229 16.1224 94.7995 15.9219 94.1328 15.9219C93.487 15.9219 92.9583 16.1354 92.5469 16.5625C92.1406 16.9896 91.8984 17.5208 91.8203 18.1562H96.2734Z" fill="url(#paint5_linear_18_5)"/>
<path d="M103.469 16.2031C103.344 16.1458 103.208 16.099 103.062 16.0625C102.922 16.026 102.763 16.0078 102.586 16.0078C102.013 16.0078 101.547 16.2812 101.188 16.8281C100.833 17.375 100.656 18.0729 100.656 18.9219V23H99.375V15H100.656V16.4609H100.688C100.87 15.9609 101.148 15.5703 101.523 15.2891C101.898 15.0026 102.318 14.8594 102.781 14.8594C102.995 14.8594 103.188 14.8776 103.359 14.9141C103.531 14.9453 103.727 15.013 103.945 15.1172L103.469 16.2031Z" fill="url(#paint6_linear_18_5)"/>
<path d="M109.109 23V11.7969H112.203C114.146 11.7969 115.617 12.2448 116.617 13.1406C117.622 14.0365 118.125 15.4089 118.125 17.2578C118.125 19.0599 117.581 20.4688 116.492 21.4844C115.404 22.4948 113.932 23 112.078 23H109.109ZM110.422 12.9844V21.8125H112.094C113.562 21.8125 114.706 21.4375 115.523 20.6875C116.341 19.9375 116.75 18.8047 116.75 17.2891C116.75 15.7839 116.372 14.6901 115.617 14.0078C114.862 13.3255 113.714 12.9844 112.172 12.9844H110.422Z" fill="url(#paint7_linear_18_5)"/>
<path d="M123.43 23.1875C122.185 23.1875 121.211 22.8177 120.508 22.0781C119.805 21.3333 119.453 20.3385 119.453 19.0938C119.453 17.8073 119.844 16.7734 120.625 15.9922C121.406 15.2057 122.383 14.8125 123.555 14.8125C124.753 14.8125 125.701 15.1953 126.398 15.9609C127.102 16.7214 127.453 17.724 127.453 18.9688C127.453 20.1719 127.091 21.1771 126.367 21.9844C125.648 22.7865 124.669 23.1875 123.43 23.1875ZM123.5 22.0781C124.307 22.0781 124.948 21.8099 125.422 21.2734C125.901 20.7318 126.141 19.9792 126.141 19.0156C126.141 18.099 125.901 17.3568 125.422 16.7891C124.948 16.2161 124.307 15.9297 123.5 15.9297C122.693 15.9297 122.034 16.2188 121.523 16.7969C121.018 17.3698 120.766 18.1198 120.766 19.0469C120.766 20.0208 121.018 20.7708 121.523 21.2969C122.034 21.8177 122.693 22.0781 123.5 22.0781Z" fill="url(#paint8_linear_18_5)"/>
<path d="M139.469 15L137.07 23H135.742L134.094 17.2734C134.052 17.1224 134.023 17.0234 134.008 16.9766C133.997 16.9245 133.982 16.8385 133.961 16.7188H133.93C133.904 16.8385 133.88 16.9271 133.859 16.9844C133.844 17.0417 133.815 17.1328 133.773 17.2578L131.984 23H130.672L128.25 15H129.594L131.25 20.9141C131.276 21.0026 131.297 21.0859 131.312 21.1641C131.328 21.2422 131.346 21.3385 131.367 21.4531H131.414C131.44 21.3333 131.464 21.237 131.484 21.1641C131.505 21.0859 131.531 20.9974 131.562 20.8984L133.406 15H134.609L136.266 20.9297C136.286 21.0026 136.307 21.0833 136.328 21.1719C136.349 21.2552 136.372 21.349 136.398 21.4531H136.445C136.471 21.349 136.49 21.2682 136.5 21.2109C136.516 21.1484 136.542 21.0547 136.578 20.9297L138.203 15H139.469Z" fill="url(#paint9_linear_18_5)"/>
<path d="M147.453 23H146.172V18.25C146.172 17.4635 146.021 16.8802 145.719 16.5C145.417 16.1146 144.966 15.9219 144.367 15.9219C143.69 15.9219 143.141 16.1615 142.719 16.6406C142.302 17.1146 142.094 17.7135 142.094 18.4375V23H140.812V15H142.094V16.1406H142.125C142.427 15.6979 142.797 15.3672 143.234 15.1484C143.672 14.9245 144.177 14.8125 144.75 14.8125C145.625 14.8125 146.294 15.0964 146.758 15.6641C147.221 16.2266 147.453 17.0417 147.453 18.1094V23Z" fill="url(#paint10_linear_18_5)"/>
<path d="M149.719 23V11.1562H151V23H149.719Z" fill="url(#paint11_linear_18_5)"/>
<path d="M156.867 23.1875C155.622 23.1875 154.648 22.8177 153.945 22.0781C153.242 21.3333 152.891 20.3385 152.891 19.0938C152.891 17.8073 153.281 16.7734 154.062 15.9922C154.844 15.2057 155.82 14.8125 156.992 14.8125C158.19 14.8125 159.138 15.1953 159.836 15.9609C160.539 16.7214 160.891 17.724 160.891 18.9688C160.891 20.1719 160.529 21.1771 159.805 21.9844C159.086 22.7865 158.107 23.1875 156.867 23.1875ZM156.938 22.0781C157.745 22.0781 158.385 21.8099 158.859 21.2734C159.339 20.7318 159.578 19.9792 159.578 19.0156C159.578 18.099 159.339 17.3568 158.859 16.7891C158.385 16.2161 157.745 15.9297 156.938 15.9297C156.13 15.9297 155.471 16.2188 154.961 16.7969C154.456 17.3698 154.203 18.1198 154.203 19.0469C154.203 20.0208 154.456 20.7708 154.961 21.2969C155.471 21.8177 156.13 22.0781 156.938 22.0781Z" fill="url(#paint12_linear_18_5)"/>
<path d="M168.445 23H167.164V21.9375H167.133C166.862 22.3385 166.518 22.6484 166.102 22.8672C165.69 23.0807 165.234 23.1875 164.734 23.1875C163.938 23.1875 163.312 22.974 162.859 22.5469C162.411 22.1198 162.188 21.5859 162.188 20.9453C162.188 20.1953 162.422 19.6146 162.891 19.2031C163.359 18.7865 164.016 18.5286 164.859 18.4297L167.164 18.1641V17.6562C167.164 17.0781 167.013 16.6458 166.711 16.3594C166.414 16.0677 166.005 15.9219 165.484 15.9219C164.99 15.9219 164.581 16.0339 164.258 16.2578C163.935 16.4766 163.688 16.7839 163.516 17.1797L162.398 16.7188C162.659 16.1146 163.06 15.6458 163.602 15.3125C164.148 14.9792 164.799 14.8125 165.555 14.8125C166.487 14.8125 167.201 15.0625 167.695 15.5625C168.195 16.0573 168.445 16.7526 168.445 17.6484V23ZM167.164 19.75V19.2031L164.945 19.4531C164.451 19.5104 164.086 19.6536 163.852 19.8828C163.617 20.1068 163.5 20.4062 163.5 20.7812C163.5 21.1927 163.635 21.5234 163.906 21.7734C164.177 22.0182 164.531 22.1406 164.969 22.1406C165.625 22.1406 166.154 21.9167 166.555 21.4688C166.961 21.0156 167.164 20.4427 167.164 19.75Z" fill="url(#paint13_linear_18_5)"/>
<path d="M176.344 21.8281C176.047 22.2708 175.667 22.6094 175.203 22.8438C174.745 23.0729 174.234 23.1875 173.672 23.1875C172.552 23.1875 171.685 22.8307 171.07 22.1172C170.461 21.3984 170.156 20.4219 170.156 19.1875C170.156 17.8333 170.503 16.7656 171.195 15.9844C171.888 15.2031 172.792 14.8125 173.906 14.8125C174.448 14.8125 174.927 14.9115 175.344 15.1094C175.766 15.3073 176.099 15.5781 176.344 15.9219H176.375V11.1562H177.656V23H176.375V21.8281H176.344ZM171.469 19.125C171.469 20.0312 171.677 20.75 172.094 21.2812C172.516 21.8125 173.096 22.0781 173.836 22.0781C174.617 22.0781 175.234 21.8229 175.688 21.3125C176.146 20.8021 176.375 20.1589 176.375 19.3828V18.2031C176.375 17.5677 176.154 17.0286 175.711 16.5859C175.273 16.1432 174.706 15.9219 174.008 15.9219C173.232 15.9219 172.615 16.1953 172.156 16.7422C171.698 17.2891 171.469 18.0833 171.469 19.125Z" fill="url(#paint14_linear_18_5)"/>
<path d="M186.648 19.2266H180.875C180.875 20.2161 181.109 20.9401 181.578 21.3984C182.052 21.8516 182.615 22.0781 183.266 22.0781C183.755 22.0781 184.185 21.9661 184.555 21.7422C184.93 21.513 185.24 21.1745 185.484 20.7266L186.531 21.2578C186.25 21.8307 185.826 22.2969 185.258 22.6562C184.695 23.0104 184.003 23.1875 183.18 23.1875C182.117 23.1875 181.245 22.8359 180.562 22.1328C179.885 21.4297 179.547 20.3958 179.547 19.0312C179.547 17.8177 179.891 16.8125 180.578 16.0156C181.266 15.2135 182.146 14.8125 183.219 14.8125C184.307 14.8125 185.151 15.1432 185.75 15.8047C186.349 16.4609 186.648 17.3776 186.648 18.5547V19.2266ZM185.336 18.1562C185.336 17.4635 185.146 16.9193 184.766 16.5234C184.385 16.1224 183.862 15.9219 183.195 15.9219C182.549 15.9219 182.021 16.1354 181.609 16.5625C181.203 16.9896 180.961 17.5208 180.883 18.1562H185.336Z" fill="url(#paint15_linear_18_5)"/>
<path d="M192.531 16.2031C192.406 16.1458 192.271 16.099 192.125 16.0625C191.984 16.026 191.826 16.0078 191.648 16.0078C191.076 16.0078 190.609 16.2812 190.25 16.8281C189.896 17.375 189.719 18.0729 189.719 18.9219V23H188.438V15H189.719V16.4609H189.75C189.932 15.9609 190.211 15.5703 190.586 15.2891C190.961 15.0026 191.38 14.8594 191.844 14.8594C192.057 14.8594 192.25 14.8776 192.422 14.9141C192.594 14.9453 192.789 15.013 193.008 15.1172L192.531 16.2031Z" fill="url(#paint16_linear_18_5)"/>
<path d="M48 19C48 25.63 42.63 31 36 31C34.2 31 11.34 31 9.5 31C4.25 31 0 26.75 0 21.5C0 16.96 3.18 13.16 7.45 12.22C9.15 5.21 15.46 0 23 0C28.51 0 33.36 2.78 36.24 7.01C42.76 7.13 48 12.45 48 19Z" fill="url(#paint17_linear_18_5)"/>
<path d="M29.393 19H26V11C26 10.448 25.552 10 25 10H23C22.448 10 22 10.448 22 11V19H18.607C18.067 19 17.797 19.653 18.179 20.034L23.143 24.998C23.616 25.471 24.384 25.471 24.857 24.998L29.821 20.034C30.203 19.653 29.933 19 29.393 19Z" fill="white"/>
<defs>
<linearGradient id="paint0_linear_18_5" x1="-0.209339" y1="-13.2857" x2="197.542" y2="3.1849" gradientUnits="userSpaceOnUse">
<stop stop-color="#2AA4F4"/>
<stop offset="1" stop-color="#007AD9"/>
</linearGradient>
<linearGradient id="paint1_linear_18_5" x1="-0.209339" y1="-13.2857" x2="197.542" y2="3.1849" gradientUnits="userSpaceOnUse">
<stop stop-color="#2AA4F4"/>
<stop offset="1" stop-color="#007AD9"/>
</linearGradient>
<linearGradient id="paint2_linear_18_5" x1="-0.209339" y1="-13.2857" x2="197.542" y2="3.1849" gradientUnits="userSpaceOnUse">
<stop stop-color="#2AA4F4"/>
<stop offset="1" stop-color="#007AD9"/>
</linearGradient>
<linearGradient id="paint3_linear_18_5" x1="-0.209339" y1="-13.2857" x2="197.542" y2="3.1849" gradientUnits="userSpaceOnUse">
<stop stop-color="#2AA4F4"/>
<stop offset="1" stop-color="#007AD9"/>
</linearGradient>
<linearGradient id="paint4_linear_18_5" x1="-0.209339" y1="-13.2857" x2="197.542" y2="3.1849" gradientUnits="userSpaceOnUse">
<stop stop-color="#2AA4F4"/>
<stop offset="1" stop-color="#007AD9"/>
</linearGradient>
<linearGradient id="paint5_linear_18_5" x1="-0.209339" y1="-13.2857" x2="197.542" y2="3.1849" gradientUnits="userSpaceOnUse">
<stop stop-color="#2AA4F4"/>
<stop offset="1" stop-color="#007AD9"/>
</linearGradient>
<linearGradient id="paint6_linear_18_5" x1="-0.209339" y1="-13.2857" x2="197.542" y2="3.1849" gradientUnits="userSpaceOnUse">
<stop stop-color="#2AA4F4"/>
<stop offset="1" stop-color="#007AD9"/>
</linearGradient>
<linearGradient id="paint7_linear_18_5" x1="-0.209339" y1="-13.2857" x2="197.542" y2="3.1849" gradientUnits="userSpaceOnUse">
<stop stop-color="#2AA4F4"/>
<stop offset="1" stop-color="#007AD9"/>
</linearGradient>
<linearGradient id="paint8_linear_18_5" x1="-0.209339" y1="-13.2857" x2="197.542" y2="3.1849" gradientUnits="userSpaceOnUse">
<stop stop-color="#2AA4F4"/>
<stop offset="1" stop-color="#007AD9"/>
</linearGradient>
<linearGradient id="paint9_linear_18_5" x1="-0.209339" y1="-13.2857" x2="197.542" y2="3.1849" gradientUnits="userSpaceOnUse">
<stop stop-color="#2AA4F4"/>
<stop offset="1" stop-color="#007AD9"/>
</linearGradient>
<linearGradient id="paint10_linear_18_5" x1="-0.209339" y1="-13.2857" x2="197.542" y2="3.1849" gradientUnits="userSpaceOnUse">
<stop stop-color="#2AA4F4"/>
<stop offset="1" stop-color="#007AD9"/>
</linearGradient>
<linearGradient id="paint11_linear_18_5" x1="-0.209339" y1="-13.2857" x2="197.542" y2="3.1849" gradientUnits="userSpaceOnUse">
<stop stop-color="#2AA4F4"/>
<stop offset="1" stop-color="#007AD9"/>
</linearGradient>
<linearGradient id="paint12_linear_18_5" x1="-0.209339" y1="-13.2857" x2="197.542" y2="3.1849" gradientUnits="userSpaceOnUse">
<stop stop-color="#2AA4F4"/>
<stop offset="1" stop-color="#007AD9"/>
</linearGradient>
<linearGradient id="paint13_linear_18_5" x1="-0.209339" y1="-13.2857" x2="197.542" y2="3.1849" gradientUnits="userSpaceOnUse">
<stop stop-color="#2AA4F4"/>
<stop offset="1" stop-color="#007AD9"/>
</linearGradient>
<linearGradient id="paint14_linear_18_5" x1="-0.209339" y1="-13.2857" x2="197.542" y2="3.1849" gradientUnits="userSpaceOnUse">
<stop stop-color="#2AA4F4"/>
<stop offset="1" stop-color="#007AD9"/>
</linearGradient>
<linearGradient id="paint15_linear_18_5" x1="-0.209339" y1="-13.2857" x2="197.542" y2="3.1849" gradientUnits="userSpaceOnUse">
<stop stop-color="#2AA4F4"/>
<stop offset="1" stop-color="#007AD9"/>
</linearGradient>
<linearGradient id="paint16_linear_18_5" x1="-0.209339" y1="-13.2857" x2="197.542" y2="3.1849" gradientUnits="userSpaceOnUse">
<stop stop-color="#2AA4F4"/>
<stop offset="1" stop-color="#007AD9"/>
</linearGradient>
<linearGradient id="paint17_linear_18_5" x1="57.267" y1="1.358" x2="62.2364" y2="39.4109" gradientUnits="userSpaceOnUse">
<stop stop-color="#2AA4F4"/>
<stop offset="1" stop-color="#007AD9"/>
</linearGradient>
</defs>
</svg>
