<?xml version="1.0" encoding="UTF-8"?>
<svg width="194" height="31" fill="none" viewBox="0 0 194 31" xmlns="http://www.w3.org/2000/svg">
<path d="M63.9219 12.9844H60.6875V23H59.375V12.9844H56.1484V11.7969H63.9219V12.9844Z" fill="url(#a)"/>
<path d="m74.531 15-2.3984 8h-1.3281l-1.6485-5.7266c-0.0416-0.151-0.0703-0.25-0.0859-0.2968-0.0104-0.0521-0.026-0.1381-0.0469-0.2578h-0.0312c-0.0261 0.1197-0.0495 0.2083-0.0703 0.2656-0.0157 0.0573-0.0443 0.1484-0.086 0.2734l-1.789 5.7422h-1.3125l-2.4219-8h1.3437l1.6563 5.9141c0.026 0.0885 0.0469 0.1718 0.0625 0.25 0.0156 0.0781 0.0339 0.1744 0.0547 0.289h0.0469c0.026-0.1198 0.0494-0.2161 0.0703-0.289 0.0208-0.0782 0.0469-0.1667 0.0781-0.2657l1.8438-5.8984h1.2031l1.6562 5.9297c0.0209 0.0729 0.0417 0.1536 0.0625 0.2422 0.0209 0.0833 0.0443 0.1771 0.0703 0.2812h0.0469c0.0261-0.1041 0.0443-0.1849 0.0547-0.2422 0.0156-0.0625 0.0417-0.1562 0.0781-0.2812l1.625-5.9297h1.2656z" fill="url(#a)"/>
<path d="m76.555 13.195c-0.2761 0-0.5-0.0911-0.6719-0.2734-0.1719-0.1875-0.2578-0.4063-0.2578-0.6563s0.0859-0.4661 0.2578-0.6484c0.1719-0.1875 0.3958-0.2813 0.6719-0.2813 0.276 0 0.5 0.0938 0.6719 0.2813 0.1718 0.1823 0.2578 0.3984 0.2578 0.6484s-0.086 0.4688-0.2578 0.6563c-0.1719 0.1823-0.3959 0.2734-0.6719 0.2734zm0.625 9.8047h-1.2813v-8h1.2813v8z" fill="url(#a)"/>
<path d="m83.75 22.492c-0.2344 0.2344-0.4922 0.4062-0.7734 0.5156-0.2813 0.1094-0.612 0.1641-0.9922 0.1641-0.6302 0-1.1172-0.1745-1.461-0.5235-0.3437-0.3541-0.5156-0.8593-0.5156-1.5156v-5.039h-1.375v-1.0938h1.375v-1.8906l1.2813-0.2266v2.1172h2.1406v1.0938h-2.1406v4.9296c0 0.3802 0.0729 0.6563 0.2187 0.8282 0.1458 0.1718 0.375 0.2578 0.6875 0.2578 0.1563 0 0.3047-0.0313 0.4453-0.0938 0.1459-0.0625 0.2969-0.1823 0.4532-0.3594l0.6562 0.836z" fill="url(#a)"/>
<path d="m89.469 22.492c-0.2344 0.2344-0.4922 0.4062-0.7735 0.5156-0.2812 0.1094-0.612 0.1641-0.9922 0.1641-0.6302 0-1.1172-0.1745-1.4609-0.5235-0.3438-0.3541-0.5156-0.8593-0.5156-1.5156v-5.039h-1.375v-1.0938h1.375v-1.8906l1.2812-0.2266v2.1172h2.1406v1.0938h-2.1406v4.9296c0 0.3802 0.0729 0.6563 0.2188 0.8282 0.1458 0.1718 0.375 0.2578 0.6875 0.2578 0.1562 0 0.3047-0.0313 0.4453-0.0938 0.1458-0.0625 0.2968-0.1823 0.4531-0.3594l0.6563 0.836z" fill="url(#a)"/>
<path d="m97.586 19.227h-5.7734c0 0.9895 0.2344 1.7135 0.7031 2.1718 0.474 0.4532 1.0365 0.6797 1.6875 0.6797 0.4896 0 0.9193-0.112 1.2891-0.3359 0.375-0.2292 0.6849-0.5677 0.9297-1.0156l1.0469 0.5312c-0.2813 0.5729-0.7058 1.0391-1.2735 1.3984-0.5625 0.3542-1.2552 0.5313-2.0781 0.5313-1.0625 0-1.9349-0.3516-2.6172-1.0547-0.6771-0.7031-1.0156-1.737-1.0156-3.1016 0-1.2135 0.3437-2.2187 1.0312-3.0156 0.6875-0.8021 1.5677-1.2031 2.6406-1.2031 1.0886 0 1.9323 0.3307 2.5313 0.9922 0.599 0.6562 0.8984 1.5729 0.8984 2.75v0.6719zm-1.3125-1.0704c0-0.6927-0.1901-1.2369-0.5703-1.6328-0.3802-0.401-0.9036-0.6015-1.5703-0.6015-0.6458 0-1.1745 0.2135-1.5859 0.6406-0.4063 0.4271-0.6485 0.9583-0.7266 1.5937h4.4531z" fill="url(#a)"/>
<path d="m103.47 16.203c-0.125-0.0573-0.261-0.1041-0.407-0.1406-0.14-0.0365-0.299-0.0547-0.476-0.0547-0.573 0-1.039 0.2734-1.398 0.8203-0.355 0.5469-0.532 1.2448-0.532 2.0938v4.0781h-1.281v-8h1.281v1.4609h0.032c0.182-0.5 0.46-0.8906 0.835-1.1718 0.375-0.2865 0.795-0.4297 1.258-0.4297 0.214 0 0.407 0.0182 0.578 0.0547 0.172 0.0312 0.368 0.0989 0.586 0.2031l-0.476 1.0859z" fill="url(#a)"/>
<path d="m109.11 23v-11.203h3.094c1.943 0 3.414 0.4479 4.414 1.3437 1.005 0.8959 1.508 2.2683 1.508 4.1172 0 1.8021-0.544 3.211-1.633 4.2266-1.088 1.0104-2.56 1.5156-4.414 1.5156h-2.969zm1.313-10.016v8.8281h1.672c1.468 0 2.612-0.375 3.429-1.125 0.818-0.75 1.227-1.8828 1.227-3.3984 0-1.5052-0.378-2.599-1.133-3.2813s-1.903-1.0234-3.445-1.0234h-1.75z" fill="url(#a)"/>
<path d="m123.43 23.188c-1.245 0-2.219-0.3698-2.922-1.1094-0.703-0.7448-1.055-1.7396-1.055-2.9843 0-1.2865 0.391-2.3204 1.172-3.1016 0.781-0.7865 1.758-1.1797 2.93-1.1797 1.198 0 2.146 0.3828 2.843 1.1484 0.704 0.7605 1.055 1.7631 1.055 3.0079 0 1.2031-0.362 2.2083-1.086 3.0156-0.719 0.8021-1.698 1.2031-2.937 1.2031zm0.07-1.1094c0.807 0 1.448-0.2682 1.922-0.8047 0.479-0.5416 0.719-1.2942 0.719-2.2578 0-0.9166-0.24-1.6588-0.719-2.2265-0.474-0.573-1.115-0.8594-1.922-0.8594s-1.466 0.2891-1.977 0.8672c-0.505 0.5729-0.757 1.3229-0.757 2.25 0 0.9739 0.252 1.7239 0.757 2.25 0.511 0.5208 1.17 0.7812 1.977 0.7812z" fill="url(#a)"/>
<path d="m139.47 15-2.399 8h-1.328l-1.648-5.7266c-0.042-0.151-0.071-0.25-0.086-0.2968-0.011-0.0521-0.026-0.1381-0.047-0.2578h-0.031c-0.026 0.1197-0.05 0.2083-0.071 0.2656-0.015 0.0573-0.044 0.1484-0.086 0.2734l-1.789 5.7422h-1.312l-2.422-8h1.344l1.656 5.9141c0.026 0.0885 0.047 0.1718 0.062 0.25 0.016 0.0781 0.034 0.1744 0.055 0.289h0.047c0.026-0.1198 0.05-0.2161 0.07-0.289 0.021-0.0782 0.047-0.1667 0.078-0.2657l1.844-5.8984h1.203l1.657 5.9297c0.02 0.0729 0.041 0.1536 0.062 0.2422 0.021 0.0833 0.044 0.1771 0.07 0.2812h0.047c0.026-0.1041 0.045-0.1849 0.055-0.2422 0.016-0.0625 0.042-0.1562 0.078-0.2812l1.625-5.9297h1.266z" fill="url(#a)"/>
<path d="m147.45 23h-1.281v-4.75c0-0.7865-0.151-1.3698-0.453-1.75-0.302-0.3854-0.753-0.5781-1.352-0.5781-0.677 0-1.226 0.2396-1.648 0.7187-0.417 0.474-0.625 1.0729-0.625 1.7969v4.5625h-1.282v-8h1.282v1.1406h0.031c0.302-0.4427 0.672-0.7734 1.109-0.9922 0.438-0.2239 0.943-0.3359 1.516-0.3359 0.875 0 1.544 0.2839 2.008 0.8516 0.463 0.5625 0.695 1.3776 0.695 2.4453v4.8906z" fill="url(#a)"/>
<path d="M149.719 23V11.1562H151V23H149.719Z" fill="url(#a)"/>
<path d="m156.87 23.188c-1.245 0-2.219-0.3698-2.922-1.1094-0.703-0.7448-1.054-1.7396-1.054-2.9843 0-1.2865 0.39-2.3204 1.171-3.1016 0.782-0.7865 1.758-1.1797 2.93-1.1797 1.198 0 2.146 0.3828 2.844 1.1484 0.703 0.7605 1.055 1.7631 1.055 3.0079 0 1.2031-0.362 2.2083-1.086 3.0156-0.719 0.8021-1.698 1.2031-2.938 1.2031zm0.071-1.1094c0.807 0 1.447-0.2682 1.921-0.8047 0.48-0.5416 0.719-1.2942 0.719-2.2578 0-0.9166-0.239-1.6588-0.719-2.2265-0.474-0.573-1.114-0.8594-1.921-0.8594-0.808 0-1.467 0.2891-1.977 0.8672-0.505 0.5729-0.758 1.3229-0.758 2.25 0 0.9739 0.253 1.7239 0.758 2.25 0.51 0.5208 1.169 0.7812 1.977 0.7812z" fill="url(#a)"/>
<path d="m168.44 23h-1.281v-1.0625h-0.031c-0.271 0.401-0.615 0.7109-1.031 0.9297-0.412 0.2135-0.868 0.3203-1.368 0.3203-0.796 0-1.422-0.2135-1.875-0.6406-0.448-0.4271-0.671-0.961-0.671-1.6016 0-0.75 0.234-1.3307 0.703-1.7422 0.468-0.4166 1.125-0.6745 1.968-0.7734l2.305-0.2656v-0.5079c0-0.5781-0.151-1.0104-0.453-1.2968-0.297-0.2917-0.706-0.4375-1.227-0.4375-0.494 0-0.903 0.112-1.226 0.3359-0.323 0.2188-0.57 0.5261-0.742 0.9219l-1.118-0.4609c0.261-0.6042 0.662-1.073 1.204-1.4063 0.546-0.3333 1.197-0.5 1.953-0.5 0.932 0 1.646 0.25 2.14 0.75 0.5 0.4948 0.75 1.1901 0.75 2.0859v5.3516zm-1.281-3.25v-0.5469l-2.219 0.25c-0.494 0.0573-0.859 0.2005-1.093 0.4297-0.235 0.224-0.352 0.5234-0.352 0.8984 0 0.4115 0.135 0.7422 0.406 0.9922 0.271 0.2448 0.625 0.3672 1.063 0.3672 0.656 0 1.185-0.2239 1.586-0.6718 0.406-0.4532 0.609-1.0261 0.609-1.7188z" fill="url(#a)"/>
<path d="m176.34 21.828c-0.297 0.4427-0.677 0.7813-1.141 1.0157-0.458 0.2291-0.969 0.3437-1.531 0.3437-1.12 0-1.987-0.3568-2.602-1.0703-0.609-0.7188-0.914-1.6953-0.914-2.9297 0-1.3542 0.347-2.4219 1.039-3.2031 0.693-0.7813 1.597-1.1719 2.711-1.1719 0.542 0 1.021 0.099 1.438 0.2969 0.422 0.1979 0.755 0.4687 1 0.8125h0.031v-4.7657h1.281v11.844h-1.281v-1.1719h-0.031zm-4.875-2.7031c0 0.9062 0.208 1.625 0.625 2.1562 0.422 0.5313 1.002 0.7969 1.742 0.7969 0.781 0 1.398-0.2552 1.852-0.7656 0.458-0.5104 0.687-1.1536 0.687-1.9297v-1.1797c0-0.6354-0.221-1.1745-0.664-1.6172-0.438-0.4427-1.005-0.664-1.703-0.664-0.776 0-1.393 0.2734-1.852 0.8203-0.458 0.5469-0.687 1.3411-0.687 2.3828z" fill="url(#a)"/>
<path d="m186.65 19.227h-5.773c0 0.9895 0.234 1.7135 0.703 2.1718 0.474 0.4532 1.037 0.6797 1.688 0.6797 0.489 0 0.919-0.112 1.289-0.3359 0.375-0.2292 0.685-0.5677 0.929-1.0156l1.047 0.5312c-0.281 0.5729-0.705 1.0391-1.273 1.3984-0.563 0.3542-1.255 0.5313-2.078 0.5313-1.063 0-1.935-0.3516-2.618-1.0547-0.677-0.7031-1.015-1.737-1.015-3.1016 0-1.2135 0.344-2.2187 1.031-3.0156 0.688-0.8021 1.568-1.2031 2.641-1.2031 1.088 0 1.932 0.3307 2.531 0.9922 0.599 0.6562 0.898 1.5729 0.898 2.75v0.6719zm-1.312-1.0704c0-0.6927-0.19-1.2369-0.57-1.6328-0.381-0.401-0.904-0.6015-1.571-0.6015-0.646 0-1.174 0.2135-1.586 0.6406-0.406 0.4271-0.648 0.9583-0.726 1.5937h4.453z" fill="url(#a)"/>
<path d="m192.53 16.203c-0.125-0.0573-0.26-0.1041-0.406-0.1406-0.141-0.0365-0.299-0.0547-0.477-0.0547-0.572 0-1.039 0.2734-1.398 0.8203-0.354 0.5469-0.531 1.2448-0.531 2.0938v4.0781h-1.281v-8h1.281v1.4609h0.031c0.182-0.5 0.461-0.8906 0.836-1.1718 0.375-0.2865 0.794-0.4297 1.258-0.4297 0.213 0 0.406 0.0182 0.578 0.0547 0.172 0.0312 0.367 0.0989 0.586 0.2031l-0.477 1.0859z" fill="url(#a)"/>
<path d="m48 19c0 6.63-5.37 12-12 12h-26.5c-5.25 0-9.5-4.25-9.5-9.5 0-4.54 3.18-8.34 7.45-9.28 1.7-7.01 8.01-12.22 15.55-12.22 5.51 0 10.36 2.78 13.24 7.01 6.52 0.12 11.76 5.44 11.76 11.99z" fill="url(#b)"/>
<path d="m29.393 19h-3.393v-8c0-0.552-0.448-1-1-1h-2c-0.552 0-1 0.448-1 1v8h-3.393c-0.54 0-0.81 0.653-0.428 1.034l4.964 4.964c0.473 0.473 1.241 0.473 1.714 0l4.964-4.964c0.382-0.381 0.112-1.034-0.428-1.034z" fill="#fff"/>
<defs>
<linearGradient id="a" x1="-.20934" x2="197.54" y1="-13.286" y2="3.1849" gradientUnits="userSpaceOnUse">
<stop stop-color="#2AA4F4" offset="0"/>
<stop stop-color="#007AD9" offset="1"/>
</linearGradient>
<linearGradient id="b" x1="57.267" x2="62.236" y1="1.358" y2="39.411" gradientUnits="userSpaceOnUse">
<stop stop-color="#2AA4F4" offset="0"/>
<stop stop-color="#007AD9" offset="1"/>
</linearGradient>
</defs>
</svg>
