<svg width="80" height="80" viewBox="0 0 80 80" fill="none" xmlns="http://www.w3.org/2000/svg">
<g clip-path="url(#clip0_17_49)">
<rect width="80" height="80" rx="40" fill="white"/>
<path d="M24 0H56V80H24V0Z" fill="url(#paint0_linear_17_49)"/>
<path d="M56 0H80C84.4183 0 88 4.34148 88 9.69697V70.303C88 75.6585 84.4183 80 80 80H56V0Z" fill="url(#paint1_linear_17_49)"/>
<path d="M-8 9.69697C-8 4.34148 -4.41828 0 0 0H24V80H0C-4.41828 80 -8 75.6585 -8 70.303V9.69697Z" fill="url(#paint2_linear_17_49)"/>
</g>
<defs>
<linearGradient id="paint0_linear_17_49" x1="40" y1="0" x2="40" y2="80" gradientUnits="userSpaceOnUse">
<stop stop-color="#DFE9F2"/>
<stop offset="1" stop-color="#C6CFD8"/>
</linearGradient>
<linearGradient id="paint1_linear_17_49" x1="8" y1="0" x2="8" y2="80" gradientUnits="userSpaceOnUse">
<stop stop-color="#F0434F"/>
<stop offset="1" stop-color="#E52030"/>
</linearGradient>
<linearGradient id="paint2_linear_17_49" x1="8" y1="0" x2="8" y2="80" gradientUnits="userSpaceOnUse">
<stop stop-color="#F0434F"/>
<stop offset="1" stop-color="#E52030"/>
</linearGradient>
<clipPath id="clip0_17_49">
<rect width="80" height="80" rx="40" fill="white"/>
</clipPath>
</defs>
</svg>
