<svg width="139" height="41" viewBox="0 0 139 41" fill="none" xmlns="http://www.w3.org/2000/svg">
<path d="M0 4.41863C0 2.12499 1.85914 0.265625 4.15252 0.265625H134.847C137.141 0.265625 139 2.12499 139 4.41863V36.1126C139 38.4063 137.141 40.2656 134.847 40.2656H4.15251C1.85914 40.2656 0 38.4063 0 36.1126V4.41863Z" fill="#F5F5F5"/>
<path fill-rule="evenodd" clip-rule="evenodd" d="M10.3311 8.02293C10.0432 8.33195 9.87817 8.80794 9.87817 9.4266V31.4247C9.87817 32.0433 10.0432 32.5193 10.342 32.8175L10.42 32.8834L22.7445 20.5574V20.2804L10.4091 7.95704L10.3311 8.02293Z" fill="url(#paint0_linear_18_9)"/>
<path fill-rule="evenodd" clip-rule="evenodd" d="M26.8443 24.6821L22.7336 20.5696V20.2817L26.8456 16.1692L26.9345 16.2242L31.7982 18.9887C33.1908 19.7737 33.1908 21.0673 31.7982 21.8632L26.9345 24.6277L26.8443 24.6821Z" fill="url(#paint1_linear_18_9)"/>
<path fill-rule="evenodd" clip-rule="evenodd" d="M26.9332 24.6271L22.7336 20.4256L10.3311 32.8296C10.784 33.3165 11.5465 33.3715 12.3986 32.8955L26.9332 24.6271Z" fill="url(#paint2_linear_18_9)"/>
<path fill-rule="evenodd" clip-rule="evenodd" d="M26.9332 16.2255L12.3986 7.96792C11.5478 7.48105 10.784 7.54694 10.3311 8.03381L22.7323 20.4256L26.9332 16.2255Z" fill="url(#paint3_linear_18_9)"/>
<path d="M46.055 14.1317C45.6964 14.405 45.2798 14.6235 44.8052 14.7875C44.3305 14.9514 43.8251 15.0334 43.2889 15.0334C42.2269 15.0334 41.3749 14.6953 40.7329 14.019C40.0909 13.3428 39.7699 12.448 39.7699 11.3346C39.7699 10.1734 40.0892 9.2342 40.7278 8.51699C41.3698 7.79978 42.2252 7.44117 43.2941 7.44117C43.9395 7.44117 44.4944 7.57266 44.9588 7.83564C45.4233 8.09862 45.7767 8.46747 46.0192 8.9422L45.2611 9.29056C45.0732 8.94903 44.812 8.68946 44.4773 8.51187C44.1427 8.33086 43.7482 8.24035 43.2941 8.24035C42.5052 8.24035 41.8701 8.52041 41.3886 9.08052C40.9105 9.63721 40.6714 10.3664 40.6714 11.268C40.6714 12.1936 40.9122 12.921 41.3937 13.4504C41.8786 13.9763 42.5206 14.2393 43.3197 14.2393C43.6714 14.2393 44.0095 14.1932 44.3339 14.101C44.6583 14.0088 44.9452 13.8722 45.1945 13.6912V11.8981H43.4375V11.1195H46.055V14.1317Z" fill="#0E0E0E"/>
<path d="M51.5513 14.9104H47.6583V7.56412H51.3874V8.34281H48.5189V10.7865H51.1722V11.56H48.5189V14.1317H51.5513V14.9104Z" fill="#0E0E0E"/>
<path d="M57.1449 8.34281H55.0242V14.9104H54.1637V8.34281H52.0482V7.56412H57.1449V8.34281Z" fill="#0E0E0E"/>
<path d="M61.5808 14.9104H60.7203V7.56412H61.5808V14.9104Z" fill="#0E0E0E"/>
<path d="M67.6969 8.34281H65.5763V14.9104H64.7157V8.34281H62.6002V7.56412H67.6969V8.34281Z" fill="#0E0E0E"/>
<path d="M74.274 15.0334C73.2359 15.0334 72.3958 14.6919 71.7538 14.0088C71.1118 13.3223 70.7908 12.4275 70.7908 11.3244C70.7908 10.1529 71.1221 9.21371 71.7846 8.50675C72.4505 7.79636 73.3213 7.44117 74.397 7.44117C75.4078 7.44117 76.2239 7.77929 76.8454 8.45552C77.467 9.13175 77.7777 10.0283 77.7777 11.1451C77.7777 12.3029 77.455 13.2404 76.8096 13.9576C76.1642 14.6748 75.319 15.0334 74.274 15.0334ZM74.274 14.2393C75.0526 14.2393 75.681 13.9644 76.159 13.4145C76.6371 12.8647 76.8762 12.1475 76.8762 11.2629C76.8762 10.351 76.6423 9.62013 76.1744 9.07027C75.7066 8.51699 75.0936 8.24035 74.3355 8.24035C73.5467 8.24035 72.9081 8.51528 72.4197 9.06515C71.9348 9.6116 71.6924 10.3391 71.6924 11.2475C71.6924 12.1389 71.9297 12.8613 72.4044 13.4145C72.8825 13.9644 73.5057 14.2393 74.274 14.2393Z" fill="#0E0E0E"/>
<path d="M85.0412 14.9104H83.986L80.2057 9.0549C80.1511 8.97293 80.1118 8.91487 80.0879 8.88072C80.064 8.84315 80.0315 8.79192 79.9906 8.72703H79.9598C79.9667 8.79534 79.9718 8.90292 79.9752 9.04978C79.9786 9.19322 79.9803 9.37765 79.9803 9.60306V14.9104H79.1198V7.56412H80.2364L83.9143 13.3274C83.9792 13.4299 84.0287 13.5119 84.0628 13.5733C84.097 13.6314 84.1362 13.6997 84.1806 13.7783H84.2011C84.1943 13.6758 84.1892 13.5375 84.1858 13.3633C84.1823 13.1891 84.1806 12.9808 84.1806 12.7383V7.56412H85.0412V14.9104Z" fill="#0E0E0E"/>
<path d="M51.454 31.2569C50.8177 31.7281 50.0804 32.1105 49.2422 32.4042C48.404 32.6918 47.5321 32.8356 46.6266 32.8356C44.6014 32.8356 42.9953 32.239 41.8084 31.0458C40.6214 29.8526 40.0279 28.2463 40.0279 26.227C40.0279 24.1527 40.6214 22.4699 41.8084 21.1788C42.9953 19.8815 44.5372 19.2329 46.4339 19.2329C47.6698 19.2329 48.7099 19.4777 49.5542 19.9672C50.3986 20.4506 51.0379 21.1115 51.4723 21.9498L49.646 22.8309C49.3217 22.2619 48.8965 21.8397 48.3703 21.5643C47.8441 21.2889 47.2354 21.1513 46.544 21.1513C45.302 21.1513 44.2894 21.5949 43.5062 22.4822C42.7292 23.3694 42.3407 24.5626 42.3407 26.0618C42.3407 27.5977 42.7292 28.7909 43.5062 29.6415C44.2894 30.492 45.3203 30.9173 46.5991 30.9173C47.0946 30.9173 47.5749 30.8561 48.0399 30.7337C48.5049 30.6052 48.9149 30.4186 49.2697 30.1738V27.4478H46.3513V25.5662H51.454V31.2569Z" fill="#0E0E0E"/>
<path d="M57.0442 32.8356C55.5574 32.8356 54.3766 32.3981 53.5017 31.5231C52.6267 30.6481 52.1893 29.4701 52.1893 27.9893C52.1954 26.4902 52.6604 25.2847 53.5843 24.373C54.5081 23.4551 55.7073 22.9962 57.1819 22.9962C58.6625 22.9962 59.8311 23.4459 60.6877 24.3454C61.5442 25.2449 61.9725 26.4075 61.9725 27.8333C61.9725 29.2896 61.5198 30.489 60.6143 31.4313C59.7149 32.3675 58.5248 32.8356 57.0442 32.8356ZM57.1268 31.1009C57.9711 31.1009 58.6258 30.8133 59.0908 30.2381C59.5558 29.6568 59.7883 28.8735 59.7883 27.8884C59.7883 26.9399 59.5527 26.1781 59.0816 25.6029C58.6166 25.0216 57.965 24.7309 57.1268 24.7309C56.2886 24.7309 55.6186 25.0308 55.1169 25.6304C54.6152 26.224 54.3644 26.995 54.3644 27.9434C54.3644 28.9286 54.6121 29.7027 55.1077 30.2656C55.6033 30.8225 56.2763 31.1009 57.1268 31.1009Z" fill="#0E0E0E"/>
<path d="M67.0763 32.8356C65.5896 32.8356 64.4087 32.3981 63.5338 31.5231C62.6589 30.6481 62.2214 29.4701 62.2214 27.9893C62.2275 26.4902 62.6925 25.2847 63.6164 24.373C64.5403 23.4551 65.7395 22.9962 67.214 22.9962C68.6946 22.9962 69.8633 23.4459 70.7198 24.3454C71.5764 25.2449 72.0047 26.4075 72.0047 27.8333C72.0047 29.2896 71.5519 30.489 70.6464 31.4313C69.747 32.3675 68.557 32.8356 67.0763 32.8356ZM67.1589 31.1009C68.0033 31.1009 68.6579 30.8133 69.1229 30.2381C69.5879 29.6568 69.8204 28.8735 69.8204 27.8884C69.8204 26.9399 69.5849 26.1781 69.1138 25.6029C68.6488 25.0216 67.9972 24.7309 67.1589 24.7309C66.3207 24.7309 65.6508 25.0308 65.1491 25.6304C64.6474 26.224 64.3965 26.995 64.3965 27.9434C64.3965 28.9286 64.6443 29.7027 65.1399 30.2656C65.6355 30.8225 66.3085 31.1009 67.1589 31.1009Z" fill="#0E0E0E"/>
<path d="M81.5688 32.0738C81.5688 33.6587 81.1374 34.8825 80.2747 35.7453C79.4182 36.6081 78.2282 37.0394 76.7047 37.0394C75.7319 37.0394 74.8845 36.8651 74.1625 36.5163C73.4405 36.1736 72.8348 35.681 72.3454 35.0385L73.8964 33.882C74.2512 34.3776 74.652 34.7479 75.0986 34.9926C75.5514 35.2374 76.0959 35.3598 76.7322 35.3598C77.5827 35.3598 78.2435 35.115 78.7146 34.6255C79.1918 34.1359 79.4304 33.4078 79.4304 32.441V31.3579H79.3937C79.0511 31.8413 78.632 32.2084 78.1364 32.4593C77.6469 32.7102 77.0381 32.8356 76.3101 32.8356C75.0864 32.8356 74.1044 32.4257 73.3641 31.6057C72.6237 30.7796 72.2536 29.6292 72.2536 28.1545C72.2536 26.5391 72.6757 25.2755 73.5201 24.3638C74.3705 23.452 75.4351 22.9962 76.7139 22.9962C77.2706 22.9962 77.7846 23.1002 78.2557 23.3082C78.7268 23.5163 79.1061 23.8161 79.3937 24.2077H79.4304V23.2164H81.5688V32.0738ZM79.4488 28.2463V27.1541C79.4488 26.481 79.2224 25.9088 78.7696 25.4377C78.3169 24.9665 77.7326 24.7309 77.0167 24.7309C76.2213 24.7309 75.5911 25.0185 75.1261 25.5937C74.6611 26.1689 74.4286 26.9889 74.4286 28.0536C74.4286 29.002 74.6428 29.7486 75.0711 30.2932C75.5055 30.8316 76.1051 31.1009 76.8699 31.1009C77.6347 31.1009 78.2557 30.8378 78.7329 30.3115C79.2102 29.7853 79.4488 29.0969 79.4488 28.2463Z" fill="#0E0E0E"/>
<path d="M83.0199 32.6154V18.7006H85.1583V32.6154H83.0199Z" fill="#0E0E0E"/>
<path d="M94.6673 28.4391H88.1788C88.1972 29.3447 88.4419 30.027 88.913 30.4859C89.3902 30.9387 89.9745 31.1651 90.6659 31.1651C91.1554 31.1651 91.5898 31.0519 91.9691 30.8255C92.3485 30.593 92.6697 30.2503 92.9328 29.7975L94.5755 30.6878C94.1473 31.3732 93.5997 31.9025 92.9328 32.2757C92.272 32.649 91.4919 32.8356 90.5925 32.8356C89.2098 32.8356 88.1023 32.4195 87.2702 31.5873C86.4381 30.7552 86.0221 29.5589 86.0221 27.9985C86.0221 26.5116 86.4473 25.3061 87.2978 24.3821C88.1543 23.4581 89.225 22.9962 90.5099 22.9962C91.8315 22.9962 92.8532 23.3908 93.5752 24.1802C94.3033 24.9696 94.6673 26.1138 94.6673 27.613V28.4391ZM92.6024 26.9154C92.6024 26.1811 92.4188 25.6121 92.0517 25.2082C91.6846 24.8043 91.1829 24.6024 90.5466 24.6024C89.8797 24.6024 89.3382 24.8258 88.9222 25.2725C88.5061 25.713 88.2553 26.2607 88.1696 26.9154H92.6024Z" fill="#0E0E0E"/>
<path d="M101.186 28.0352V32.6154H99.0013V19.4532H103.058C104.569 19.4532 105.728 19.8081 106.536 20.5179C107.35 21.2216 107.757 22.2374 107.757 23.5652C107.757 24.9175 107.304 26.0006 106.398 26.8145C105.493 27.6283 104.272 28.0352 102.737 28.0352H101.186ZM101.186 21.243V26.2362H102.636C103.547 26.2362 104.245 26.0129 104.728 25.5662C105.218 25.1134 105.462 24.477 105.462 23.657C105.462 22.8677 105.233 22.268 104.774 21.858C104.321 21.448 103.648 21.243 102.755 21.243H101.186Z" fill="#0E0E0E"/>
<path d="M108.446 32.6154V18.7006H110.584V32.6154H108.446Z" fill="#0E0E0E"/>
<path d="M119.231 32.6154H117.166V31.4497H117.129C116.799 31.9025 116.395 32.2482 115.918 32.4869C115.44 32.7194 114.908 32.8356 114.321 32.8356C113.452 32.8356 112.739 32.5878 112.182 32.0922C111.632 31.5965 111.356 30.9479 111.356 30.1463C111.356 29.2835 111.632 28.5921 112.182 28.0719C112.739 27.5457 113.535 27.2244 114.569 27.1082L117.175 26.8145V26.3647C117.175 25.7834 117.013 25.3489 116.689 25.0613C116.364 24.7676 115.939 24.6208 115.413 24.6208C114.893 24.6208 114.455 24.737 114.101 24.9696C113.746 25.2021 113.452 25.5356 113.22 25.97L111.623 25.1531C111.941 24.5229 112.443 24.0058 113.128 23.6019C113.813 23.1981 114.627 22.9962 115.569 22.9962C116.756 22.9962 117.661 23.3082 118.286 23.9324C118.916 24.5504 119.231 25.4499 119.231 26.6309V32.6154ZM117.175 28.797V28.283L114.908 28.5309C114.388 28.5859 114.009 28.7297 113.77 28.9623C113.532 29.1948 113.412 29.5069 113.412 29.8985C113.412 30.2962 113.547 30.6205 113.816 30.8714C114.091 31.1162 114.446 31.2386 114.881 31.2386C115.566 31.2386 116.12 31.0091 116.542 30.5502C116.964 30.0851 117.175 29.5007 117.175 28.797Z" fill="#0E0E0E"/>
<path d="M129.07 23.2164L124.702 34.4878C124.377 35.3261 123.94 35.9594 123.389 36.3878C122.845 36.8222 122.181 37.0394 121.398 37.0394C121.018 37.0394 120.661 36.9966 120.324 36.9109C119.994 36.8314 119.679 36.7029 119.379 36.5254L120.306 35.0201C120.495 35.1303 120.667 35.2068 120.82 35.2496C120.973 35.2986 121.132 35.323 121.297 35.323C121.584 35.323 121.829 35.2496 122.031 35.1028C122.239 34.962 122.426 34.702 122.591 34.3226L123.279 32.7255L119.59 23.2164H121.921L124.078 29.4487C124.145 29.6384 124.197 29.8067 124.234 29.9536C124.27 30.1004 124.313 30.2809 124.362 30.4951H124.408C124.451 30.2809 124.494 30.1035 124.537 29.9627C124.585 29.822 124.641 29.6568 124.702 29.4671L126.877 23.2164H129.07Z" fill="#0E0E0E"/>
<defs>
<linearGradient id="paint0_linear_18_9" x1="218.324" y1="-11.3343" x2="145.421" y2="119.517" gradientUnits="userSpaceOnUse">
<stop stop-color="#047ED6"/>
<stop offset="1" stop-color="#50E6FF"/>
</linearGradient>
<linearGradient id="paint1_linear_18_9" x1="149.579" y1="20.2611" x2="-40.0153" y2="20.2611" gradientUnits="userSpaceOnUse">
<stop stop-color="#FFDA1C"/>
<stop offset="1" stop-color="#FEB705"/>
</linearGradient>
<linearGradient id="paint2_linear_18_9" x1="119.851" y1="7.40059" x2="96.0092" y2="114.907" gradientUnits="userSpaceOnUse">
<stop stop-color="#D9414F"/>
<stop offset="1" stop-color="#8C193F"/>
</linearGradient>
<linearGradient id="paint3_linear_18_9" x1="-26.1565" y1="-21.4081" x2="-15.514" y2="26.612" gradientUnits="userSpaceOnUse">
<stop stop-color="#33C481"/>
<stop offset="1" stop-color="#61E3A7"/>
</linearGradient>
</defs>
</svg>
