<?xml version="1.0" encoding="UTF-8"?>
<svg width="412" height="37" fill="none" viewBox="0 0 412 37" xmlns="http://www.w3.org/2000/svg">
<path d="m23.766 6.2188h-9.7031v30.047h-3.9375v-30.047h-9.6797v-3.5625h23.32v3.5625z" fill="url(#a)"/>
<path d="m55.594 12.266-7.1954 24h-3.9843l-4.9453-17.18c-0.125-0.4531-0.211-0.75-0.2579-0.8906-0.0312-0.1562-0.0781-0.4141-0.1406-0.7734h-0.0937c-0.0782 0.3593-0.1485 0.625-0.211 0.7969-0.0468 0.1718-0.1328 0.4453-0.2578 0.8203l-5.3672 17.226h-3.9375l-7.2656-24h4.0313l4.9687 17.742c0.0781 0.2656 0.1406 0.5156 0.1875 0.75s0.1016 0.5234 0.1641 0.8672h0.1406c0.0781-0.3594 0.1484-0.6484 0.2109-0.8672 0.0625-0.2344 0.1406-0.5 0.2344-0.7969l5.5312-17.695h3.6094l4.9688 17.789c0.0625 0.2187 0.125 0.4609 0.1875 0.7265 0.0625 0.25 0.1328 0.5313 0.2109 0.8438h0.1406c0.0782-0.3125 0.1328-0.5547 0.1641-0.7266 0.0469-0.1875 0.125-0.4687 0.2344-0.8437l4.875-17.789h3.7969z" fill="url(#a)"/>
<path d="m61.664 6.8516c-0.8282 0-1.5-0.27344-2.0157-0.82031-0.5156-0.5625-0.7734-1.2188-0.7734-1.9688s0.2578-1.3984 0.7734-1.9453c0.5157-0.5625 1.1875-0.84375 2.0157-0.84375 0.8281 0 1.5 0.28125 2.0156 0.84375 0.5156 0.54687 0.7734 1.1953 0.7734 1.9453s-0.2578 1.4062-0.7734 1.9688c-0.5156 0.54687-1.1875 0.82031-2.0156 0.82031zm1.875 29.414h-3.8438v-24h3.8438v24z" fill="url(#a)"/>
<path d="m83.25 34.742c-0.7031 0.7031-1.4766 1.2187-2.3203 1.5469-0.8438 0.3281-1.8359 0.4921-2.9766 0.4921-1.8906 0-3.3515-0.5234-4.3828-1.5703-1.0312-1.0625-1.5469-2.5781-1.5469-4.5468v-15.117h-4.125v-3.2813h4.125v-5.6718l3.8438-0.67969v6.3515h6.4219v3.2813h-6.4219v14.789c0 1.1407 0.2187 1.9688 0.6562 2.4844s1.125 0.7735 2.0625 0.7735c0.4688 0 0.9141-0.0938 1.336-0.2813 0.4375-0.1875 0.8906-0.5469 1.3593-1.0781l1.9688 2.5078z" fill="url(#a)"/>
<path d="m100.41 34.742c-0.7029 0.7031-1.4763 1.2187-2.3201 1.5469-0.8437 0.3281-1.8359 0.4921-2.9765 0.4921-1.8906 0-3.3516-0.5234-4.3828-1.5703-1.0313-1.0625-1.5469-2.5781-1.5469-4.5468v-15.117h-4.125v-3.2813h4.125v-5.6718l3.8437-0.67969v6.3515h6.4219v3.2813h-6.4219v14.789c0 1.1407 0.2188 1.9688 0.6563 2.4844s1.125 0.7735 2.0625 0.7735c0.4687 0 0.914-0.0938 1.3359-0.2813 0.4375-0.1875 0.8907-0.5469 1.3594-1.0781l1.9685 2.5078z" fill="url(#a)"/>
<path d="m124.76 24.945h-17.32c0 2.9688 0.703 5.1406 2.109 6.5156 1.422 1.3594 3.109 2.0391 5.062 2.0391 1.469 0 2.758-0.3359 3.868-1.0078 1.125-0.6875 2.054-1.7031 2.789-3.0469l3.14 1.5938c-0.844 1.7187-2.117 3.1171-3.82 4.1953-1.688 1.0625-3.766 1.5937-6.234 1.5937-3.188 0-5.805-1.0547-7.852-3.164-2.031-2.1094-3.047-5.211-3.047-9.3047 0-3.6406 1.031-6.6563 3.094-9.0469 2.062-2.4063 4.703-3.6094 7.922-3.6094 3.265 0 5.797 0.9922 7.593 2.9766 1.797 1.9687 2.696 4.7187 2.696 8.25v2.0156zm-3.938-3.2109c0-2.0782-0.57-3.711-1.711-4.8985-1.14-1.2031-2.711-1.8047-4.711-1.8047-1.937 0-3.523 0.6407-4.757 1.9219-1.219 1.2813-1.946 2.875-2.18 4.7813h13.359z" fill="url(#a)"/>
<path d="m142.41 15.875c-0.375-0.1719-0.781-0.3125-1.218-0.4219-0.422-0.1093-0.899-0.164-1.43-0.164-1.719 0-3.117 0.8203-4.196 2.4609-1.062 1.6406-1.593 3.7344-1.593 6.2812v12.234h-3.844v-24h3.844v4.3828h0.093c0.547-1.5 1.383-2.6718 2.508-3.5156 1.125-0.8594 2.383-1.289 3.774-1.289 0.64 0 1.218 0.0546 1.734 0.164 0.516 0.0938 1.102 0.2969 1.758 0.6094l-1.43 3.2578z" fill="url(#a)"/>
<path d="m159.33 36.266v-33.609h9.281c5.829 0 10.243 1.3438 13.243 4.0312 3.015 2.6875 4.523 6.8047 4.523 12.352 0 5.4062-1.633 9.6328-4.898 12.68-3.266 3.0312-7.68 4.5468-13.243 4.5468h-8.906zm3.938-30.047v26.484h5.015c4.407 0 7.836-1.125 10.289-3.375s3.68-5.6484 3.68-10.195c0-4.5156-1.133-7.7969-3.398-9.8437-2.266-2.0469-5.711-3.0703-10.336-3.0703h-5.25z" fill="url(#a)"/>
<path d="m202.29 36.828c-3.734 0-6.656-1.1093-8.766-3.3281-2.109-2.2344-3.164-5.2188-3.164-8.9531 0-3.8594 1.172-6.961 3.516-9.3047 2.344-2.3594 5.273-3.5391 8.789-3.5391 3.594 0 6.438 1.1485 8.531 3.4453 2.11 2.2813 3.164 5.2891 3.164 9.0235 0 3.6093-1.086 6.625-3.257 9.0469-2.157 2.4062-5.094 3.6093-8.813 3.6093zm0.211-3.3281c2.422 0 4.344-0.8047 5.766-2.4141 1.437-1.625 2.156-3.8828 2.156-6.7734 0-2.75-0.719-4.9766-2.156-6.6797-1.422-1.7187-3.344-2.5781-5.766-2.5781s-4.398 0.8672-5.93 2.6015c-1.515 1.7188-2.273 3.9688-2.273 6.75 0 2.9219 0.758 5.1719 2.273 6.75 1.532 1.5626 3.508 2.3438 5.93 2.3438z" fill="url(#a)"/>
<path d="m250.41 12.266-7.195 24h-3.984l-4.946-17.18c-0.125-0.4531-0.211-0.75-0.258-0.8906-0.031-0.1562-0.078-0.4141-0.14-0.7734h-0.094c-0.078 0.3593-0.148 0.625-0.211 0.7969-0.047 0.1718-0.133 0.4453-0.258 0.8203l-5.367 17.226h-3.937l-7.266-24h4.031l4.969 17.742c0.078 0.2656 0.141 0.5156 0.188 0.75 0.046 0.2344 0.101 0.5234 0.164 0.8672h0.14c0.078-0.3594 0.149-0.6484 0.211-0.8672 0.063-0.2344 0.141-0.5 0.235-0.7969l5.531-17.695h3.609l4.969 17.789c0.062 0.2187 0.125 0.4609 0.187 0.7265 0.063 0.25 0.133 0.5313 0.211 0.8438h0.141c0.078-0.3125 0.133-0.5547 0.164-0.7266 0.047-0.1875 0.125-0.4687 0.234-0.8437l4.875-17.789h3.797z" fill="url(#a)"/>
<path d="m274.36 36.266h-3.843v-14.25c0-2.3594-0.454-4.1094-1.36-5.25-0.906-1.1562-2.258-1.7344-4.054-1.7344-2.032 0-3.68 0.7188-4.946 2.1563-1.25 1.4219-1.875 3.2187-1.875 5.3906v13.688h-3.843v-24h3.843v3.4219h0.094c0.906-1.3281 2.016-2.3203 3.328-2.9766 1.313-0.6718 2.828-1.0078 4.547-1.0078 2.625 0 4.633 0.8516 6.023 2.5547 1.391 1.6875 2.086 4.1328 2.086 7.336v14.672z" fill="url(#a)"/>
<path d="m281.16 36.266v-35.531h3.844v35.531h-3.844z" fill="url(#a)"/>
<path d="m302.6 36.828c-3.735 0-6.657-1.1093-8.766-3.3281-2.109-2.2344-3.164-5.2188-3.164-8.9531 0-3.8594 1.172-6.961 3.516-9.3047 2.343-2.3594 5.273-3.5391 8.789-3.5391 3.593 0 6.437 1.1485 8.531 3.4453 2.109 2.2813 3.164 5.2891 3.164 9.0235 0 3.6093-1.086 6.625-3.258 9.0469-2.156 2.4062-5.094 3.6093-8.812 3.6093zm0.21-3.3281c2.422 0 4.344-0.8047 5.766-2.4141 1.438-1.625 2.156-3.8828 2.156-6.7734 0-2.75-0.718-4.9766-2.156-6.6797-1.422-1.7187-3.344-2.5781-5.766-2.5781-2.421 0-4.398 0.8672-5.929 2.6015-1.516 1.7188-2.274 3.9688-2.274 6.75 0 2.9219 0.758 5.1719 2.274 6.75 1.531 1.5626 3.508 2.3438 5.929 2.3438z" fill="url(#a)"/>
<path d="m337.34 36.266h-3.844v-3.1875h-0.094c-0.812 1.2031-1.843 2.1328-3.093 2.7891-1.235 0.6406-2.602 0.9609-4.102 0.9609-2.391 0-4.265-0.6406-5.625-1.9219-1.344-1.2812-2.016-2.8828-2.016-4.8046 0-2.25 0.704-3.9922 2.11-5.2266 1.406-1.25 3.375-2.0234 5.906-2.3203l6.914-0.7969v-1.5234c0-1.7344-0.453-3.0313-1.359-3.8906-0.891-0.875-2.117-1.3126-3.68-1.3126-1.484 0-2.711 0.336-3.68 1.0079-0.968 0.6562-1.711 1.5781-2.226 2.7656l-3.352-1.3828c0.782-1.8125 1.985-3.2188 3.61-4.2188 1.64-1 3.593-1.5 5.859-1.5 2.797 0 4.938 0.75 6.422 2.25 1.5 1.4844 2.25 3.5703 2.25 6.2578v16.055zm-3.844-9.75v-1.6406l-6.656 0.75c-1.484 0.1719-2.578 0.6016-3.281 1.2891-0.703 0.6718-1.055 1.5703-1.055 2.6953 0 1.2344 0.406 2.2265 1.219 2.9765 0.812 0.7344 1.875 1.1016 3.187 1.1016 1.969 0 3.555-0.6719 4.758-2.0156 1.219-1.3594 1.828-3.0781 1.828-5.1563z" fill="url(#a)"/>
<path d="m361.03 32.75c-0.89 1.3281-2.031 2.3438-3.422 3.0469-1.375 0.6875-2.906 1.0312-4.593 1.0312-3.36 0-5.961-1.0703-7.805-3.2109-1.828-2.1563-2.742-5.086-2.742-8.7891 0-4.0625 1.039-7.2656 3.117-9.6093 2.078-2.3438 4.789-3.5157 8.133-3.5157 1.625 0 3.062 0.2969 4.312 0.8907 1.266 0.5937 2.266 1.4062 3 2.4374h0.094v-14.297h3.844v35.531h-3.844v-3.5156h-0.094zm-14.625-8.1094c0 2.7188 0.625 4.875 1.875 6.4688 1.266 1.5937 3.008 2.3906 5.227 2.3906 2.344 0 4.195-0.7656 5.554-2.2969 1.376-1.5312 2.063-3.4609 2.063-5.789v-3.5391c0-1.9062-0.664-3.5234-1.992-4.8516-1.313-1.3281-3.016-1.9922-5.11-1.9922-2.328 0-4.179 0.8204-5.554 2.461s-2.063 4.0234-2.063 7.1484z" fill="url(#a)"/>
<path d="m391.94 24.945h-17.32c0 2.9688 0.703 5.1406 2.109 6.5156 1.422 1.3594 3.11 2.0391 5.063 2.0391 1.469 0 2.758-0.3359 3.867-1.0078 1.125-0.6875 2.055-1.7031 2.789-3.0469l3.141 1.5938c-0.844 1.7187-2.117 3.1171-3.821 4.1953-1.687 1.0625-3.765 1.5937-6.234 1.5937-3.187 0-5.805-1.0547-7.851-3.164-2.032-2.1094-3.047-5.211-3.047-9.3047 0-3.6406 1.031-6.6563 3.093-9.0469 2.063-2.4063 4.704-3.6094 7.922-3.6094 3.266 0 5.797 0.9922 7.594 2.9766 1.797 1.9687 2.695 4.7187 2.695 8.25v2.0156zm-3.937-3.2109c0-2.0782-0.57-3.711-1.711-4.8985-1.141-1.2031-2.711-1.8047-4.711-1.8047-1.938 0-3.524 0.6407-4.758 1.9219-1.219 1.2813-1.945 2.875-2.18 4.7813h13.36z" fill="url(#a)"/>
<path d="m409.59 15.875c-0.375-0.1719-0.782-0.3125-1.219-0.4219-0.422-0.1093-0.898-0.164-1.43-0.164-1.718 0-3.117 0.8203-4.195 2.4609-1.062 1.6406-1.594 3.7344-1.594 6.2812v12.234h-3.844v-24h3.844v4.3828h0.094c0.547-1.5 1.383-2.6718 2.508-3.5156 1.125-0.8594 2.383-1.289 3.773-1.289 0.641 0 1.219 0.0546 1.735 0.164 0.515 0.0938 1.101 0.2969 1.757 0.6094l-1.429 3.2578z" fill="url(#a)"/>
<defs>
<linearGradient id="a" x1="1.1659e-5" x2="412.38" y1="-15.734" y2="45.74" gradientUnits="userSpaceOnUse">
<stop stop-color="#2AA4F4" offset="0"/>
<stop stop-color="#007AD9" offset="1"/>
</linearGradient>
</defs>
</svg>
