<svg width="111" height="41" viewBox="0 0 111 41" fill="none" xmlns="http://www.w3.org/2000/svg">
<path d="M0 2.02774C0 1.05455 0.778941 0.265625 1.73981 0.265625H109.26C110.221 0.265625 111 1.05455 111 2.02774V38.5035C111 39.4767 110.221 40.2656 109.26 40.2656H1.73981C0.778942 40.2656 0 39.4767 0 38.5035V2.02774Z" fill="#F5F5F5"/>
<path d="M42.8704 15.5162C42.5136 15.7915 42.099 16.0118 41.6267 16.177C41.1544 16.3422 40.6515 16.4248 40.118 16.4248C39.0612 16.4248 38.2133 16.084 37.5745 15.4026C36.9357 14.7212 36.6162 13.8195 36.6162 12.6975C36.6162 11.5273 36.934 10.5809 37.5694 9.85814C38.2082 9.13539 39.0595 8.77402 40.1231 8.77402C40.7653 8.77402 41.3175 8.90653 41.7796 9.17153C42.2417 9.43654 42.5934 9.80823 42.8347 10.2866L42.0803 10.6377C41.8934 10.2935 41.6335 10.0319 41.3005 9.85297C40.9675 9.67057 40.575 9.57936 40.1231 9.57936C39.3381 9.57936 38.7061 9.86158 38.2269 10.426C37.7512 10.987 37.5133 11.7218 37.5133 12.6304C37.5133 13.5631 37.7529 14.2961 38.232 14.8296C38.7146 15.3596 39.3534 15.6246 40.1485 15.6246C40.4985 15.6246 40.8349 15.5781 41.1578 15.4852C41.4806 15.3923 41.766 15.2546 42.0141 15.0722V13.2653H40.2658V12.4807H42.8704V15.5162Z" fill="#0E0E0E"/>
<path d="M48.6301 13.8074H44.8634C44.8634 14.4613 45.0163 14.9397 45.3221 15.2426C45.6313 15.542 45.9983 15.6917 46.4231 15.6917C46.7425 15.6917 47.0228 15.6177 47.2641 15.4697C47.5088 15.3183 47.7109 15.0946 47.8707 14.7986L48.5537 15.1496C48.3702 15.5282 48.0932 15.8362 47.7228 16.0737C47.3558 16.3078 46.9039 16.4248 46.367 16.4248C45.6738 16.4248 45.1046 16.1925 44.6595 15.7278C44.2177 15.2632 43.9968 14.5801 43.9968 13.6783C43.9968 12.8764 44.2211 12.2122 44.6697 11.6856C45.1182 11.1556 45.6925 10.8906 46.3925 10.8906C47.1027 10.8906 47.6532 11.1092 48.044 11.5463C48.4347 11.9799 48.6301 12.5856 48.6301 13.3634V13.8074ZM47.7738 13.1002C47.7738 12.6424 47.6498 12.2828 47.4017 12.0212C47.1537 11.7562 46.8122 11.6237 46.3772 11.6237C45.9558 11.6237 45.6109 11.7648 45.3425 12.047C45.0774 12.3292 44.9194 12.6803 44.8685 13.1002H47.7738Z" fill="#0E0E0E"/>
<path d="M52.509 15.9653C52.3561 16.1202 52.1879 16.2338 52.0044 16.306C51.8209 16.3783 51.6051 16.4144 51.3571 16.4144C50.9459 16.4144 50.6282 16.2991 50.4039 16.0686C50.1796 15.8345 50.0675 15.5007 50.0675 15.067V11.7373H49.1704V11.0145H50.0675V9.76521L50.9034 9.6155V11.0145H52.3V11.7373H50.9034V14.9948C50.9034 15.246 50.951 15.4284 51.0461 15.542C51.1413 15.6556 51.2908 15.7123 51.4947 15.7123C51.5966 15.7123 51.6935 15.6917 51.7852 15.6504C51.8804 15.6091 51.9789 15.5299 52.0809 15.4129L52.509 15.9653Z" fill="#0E0E0E"/>
<path d="M56.4185 9.822C56.2384 9.822 56.0923 9.76177 55.9801 9.64131C55.868 9.51741 55.8119 9.37287 55.8119 9.20767C55.8119 9.04247 55.868 8.89964 55.9801 8.77918C56.0923 8.65529 56.2384 8.59334 56.4185 8.59334C56.5986 8.59334 56.7447 8.65529 56.8568 8.77918C56.969 8.89964 57.0251 9.04247 57.0251 9.20767C57.0251 9.37287 56.969 9.51741 56.8568 9.64131C56.7447 9.76177 56.5986 9.822 56.4185 9.822ZM56.8263 16.3009H55.9903V11.0145H56.8263V16.3009Z" fill="#0E0E0E"/>
<path d="M61.1129 15.9653C60.96 16.1202 60.7918 16.2338 60.6083 16.306C60.4248 16.3783 60.209 16.4144 59.961 16.4144C59.5498 16.4144 59.2321 16.2991 59.0078 16.0686C58.7836 15.8345 58.6714 15.5007 58.6714 15.067V11.7373H57.7743V11.0145H58.6714V9.76521L59.5073 9.6155V11.0145H60.9039V11.7373H59.5073V14.9948C59.5073 15.246 59.5549 15.4284 59.6501 15.542C59.7452 15.6556 59.8947 15.7123 60.0986 15.7123C60.2005 15.7123 60.2974 15.6917 60.3891 15.6504C60.4843 15.6091 60.5828 15.5299 60.6848 15.4129L61.1129 15.9653Z" fill="#0E0E0E"/>
<path d="M67.102 9.23864C67.0273 9.1939 66.944 9.15604 66.8523 9.12507C66.7639 9.09409 66.6586 9.07861 66.5363 9.07861C66.2746 9.07861 66.0741 9.15948 65.9348 9.32124C65.7955 9.47956 65.7258 9.71531 65.7258 10.0285V11.0145H66.9491V11.7373H65.7258V16.3009H64.895V11.7373H64.003V11.0145H64.895V9.9872C64.895 9.51225 65.0445 9.12335 65.3435 8.82048C65.6426 8.51418 66.0452 8.36103 66.5515 8.36103C66.7113 8.36103 66.871 8.38168 67.0307 8.42298C67.1938 8.46083 67.3467 8.52106 67.4894 8.60366L67.102 9.23864Z" fill="#0E0E0E"/>
<path d="M70.512 11.8095C70.4304 11.7717 70.3421 11.7407 70.2469 11.7166C70.1552 11.6925 70.0516 11.6805 69.936 11.6805C69.5622 11.6805 69.2581 11.8612 69.0236 12.2225C68.7926 12.5839 68.677 13.0451 68.677 13.6061V16.3009H67.8411V11.0145H68.677V11.9799H68.6974C68.8164 11.6495 68.9982 11.3914 69.2428 11.2055C69.4875 11.0162 69.761 10.9216 70.0634 10.9216C70.2028 10.9216 70.3285 10.9336 70.4406 10.9577C70.5528 10.9784 70.6802 11.0231 70.8229 11.092L70.512 11.8095Z" fill="#0E0E0E"/>
<path d="M73.871 16.4248C73.0588 16.4248 72.4234 16.1804 71.9647 15.6917C71.5059 15.1995 71.2766 14.5422 71.2766 13.7196C71.2766 12.8696 71.5314 12.1864 72.0411 11.6702C72.5508 11.1505 73.188 10.8906 73.9525 10.8906C74.7341 10.8906 75.3526 11.1436 75.8079 11.6495C76.2666 12.152 76.496 12.8145 76.496 13.637C76.496 14.4321 76.2598 15.0963 75.7875 15.6297C75.3186 16.1598 74.6797 16.4248 73.871 16.4248ZM73.9169 15.6917C74.4436 15.6917 74.8615 15.5145 75.1707 15.16C75.4834 14.802 75.6397 14.3047 75.6397 13.668C75.6397 13.0623 75.4834 12.5719 75.1707 12.1967C74.8615 11.8181 74.4436 11.6289 73.9169 11.6289C73.3902 11.6289 72.9603 11.8199 72.6273 12.2019C72.2977 12.5805 72.1329 13.0761 72.1329 13.6887C72.1329 14.3323 72.2977 14.8278 72.6273 15.1755C72.9603 15.5196 73.3902 15.6917 73.9169 15.6917Z" fill="#0E0E0E"/>
<path d="M85.1407 16.3009H84.3048V13.2653C84.3048 12.6872 84.2147 12.269 84.0346 12.0109C83.8579 11.7528 83.5589 11.6237 83.1375 11.6237C82.7807 11.6237 82.4766 11.7872 82.2251 12.1141C81.9771 12.4411 81.8531 12.8317 81.8531 13.286V16.3009H81.0171V13.1621C81.0171 12.6493 80.9186 12.2656 80.7215 12.0109C80.5244 11.7528 80.2271 11.6237 79.8295 11.6237C79.4625 11.6237 79.1601 11.7786 78.9222 12.0883C78.6844 12.3946 78.5654 12.7938 78.5654 13.286V16.3009H77.7295V11.0145H78.5654V11.7682H78.5858C78.7727 11.4757 79.0004 11.2572 79.2688 11.1126C79.5407 10.9646 79.8533 10.8906 80.2067 10.8906C80.5567 10.8906 80.8608 10.9835 81.1191 11.1694C81.3807 11.3552 81.5591 11.5996 81.6543 11.9025C81.8514 11.5652 82.096 11.3122 82.3882 11.1436C82.6839 10.9749 83.0271 10.8906 83.4179 10.8906C83.9921 10.8906 84.422 11.0696 84.7074 11.4275C84.9963 11.7854 85.1407 12.3241 85.1407 13.0434V16.3009Z" fill="#0E0E0E"/>
<path d="M50.1256 31.6313H48.2009V24.0734C48.2009 23.7596 48.2037 23.4595 48.2091 23.1731C48.2145 22.8813 48.2227 22.5509 48.2336 22.1819H48.1928C48.1384 22.3416 48.0895 22.4848 48.046 22.6114C48.0025 22.7326 47.9563 22.862 47.9074 22.9997L44.4739 31.6313H43.1365L39.6949 23.074C39.646 22.9529 39.597 22.829 39.5481 22.7023C39.5046 22.5701 39.4475 22.3967 39.3768 22.1819H39.3279C39.3442 22.5068 39.3551 22.8427 39.3605 23.1896C39.366 23.5366 39.3687 23.9138 39.3687 24.3212V31.6313H37.55V19.7866H40.3066L43.3485 27.4848C43.4627 27.7711 43.5551 28.0134 43.6258 28.2117C43.6965 28.4044 43.7671 28.6164 43.8378 28.8477H43.8868C43.9792 28.5834 44.0662 28.3438 44.1477 28.1291C44.2293 27.9143 44.3136 27.6913 44.4005 27.46L47.4914 19.7866H50.1256V31.6313Z" fill="#0E0E0E"/>
<path d="M52.5895 21.6285C52.2307 21.6285 51.9371 21.5129 51.7087 21.2816C51.4858 21.0448 51.3744 20.7612 51.3744 20.4308C51.3744 20.0949 51.4858 19.8113 51.7087 19.5801C51.9371 19.3488 52.2307 19.2331 52.5895 19.2331C52.9538 19.2331 53.2474 19.3488 53.4703 19.5801C53.6986 19.8113 53.8128 20.0949 53.8128 20.4308C53.8128 20.7722 53.6986 21.0586 53.4703 21.2899C53.2474 21.5156 52.9538 21.6285 52.5895 21.6285ZM53.5355 31.6313H51.6353V23.1731H53.5355V31.6313Z" fill="#0E0E0E"/>
<path d="M61.9529 30.0536C61.5831 30.6483 61.1047 31.0944 60.5175 31.3917C59.9358 31.6836 59.2915 31.8295 58.5847 31.8295C57.2363 31.8295 56.1843 31.4385 55.4286 30.6566C54.6783 29.8691 54.3031 28.8339 54.3031 27.5509C54.3031 26.1357 54.7027 25.0206 55.502 24.2056C56.3066 23.3851 57.3505 22.9749 58.6336 22.9749C59.3567 22.9749 60.0092 23.1291 60.5909 23.4374C61.1727 23.7458 61.613 24.2056 61.9121 24.8168L60.4278 25.5767C60.1668 25.1968 59.8868 24.9297 59.5878 24.7755C59.2942 24.6158 58.9517 24.536 58.5602 24.536C57.886 24.536 57.3288 24.7893 56.8884 25.2959C56.4534 25.8025 56.2359 26.5101 56.2359 27.4187C56.2359 28.3163 56.4507 29.0101 56.8802 29.5002C57.3152 29.9903 57.8969 30.2353 58.6255 30.2353C58.9952 30.2353 59.335 30.1582 59.6449 30.0041C59.9602 29.8444 60.2429 29.5773 60.493 29.2029L61.9529 30.0536Z" fill="#0E0E0E"/>
<path d="M67.4261 24.8994C67.2739 24.8389 67.1162 24.7921 66.9531 24.759C66.7954 24.7205 66.6269 24.7012 66.4474 24.7012C65.8874 24.7012 65.4335 24.9545 65.0855 25.4611C64.7375 25.9677 64.5636 26.6285 64.5636 27.4435V31.6313H62.6634V23.1731H64.5636V24.7012H64.5962C64.7919 24.1616 65.0801 23.7486 65.4606 23.4622C65.8412 23.1704 66.2816 23.0244 66.7818 23.0244C66.9939 23.0244 67.1896 23.041 67.369 23.074C67.5484 23.107 67.7414 23.1704 67.948 23.264L67.4261 24.8994Z" fill="#0E0E0E"/>
<path d="M71.8962 31.8295C70.575 31.8295 69.5257 31.4358 68.7482 30.6483C67.9708 29.8609 67.582 28.8009 67.582 27.4683C67.5875 26.1192 68.0007 25.0343 68.8216 24.2139C69.6426 23.3879 70.7082 22.9749 72.0185 22.9749C73.3343 22.9749 74.3727 23.3796 75.1339 24.1891C75.895 24.9986 76.2756 26.0448 76.2756 27.3279C76.2756 28.6384 75.8733 29.7177 75.0686 30.5657C74.2694 31.4082 73.2119 31.8295 71.8962 31.8295ZM71.9696 30.2684C72.7199 30.2684 73.3016 30.0096 73.7149 29.4919C74.1281 28.9688 74.3347 28.264 74.3347 27.3774C74.3347 26.5239 74.1253 25.8383 73.7067 25.3207C73.2935 24.7976 72.7145 24.536 71.9696 24.536C71.2247 24.536 70.6294 24.8058 70.1836 25.3455C69.7378 25.8796 69.5148 26.5734 69.5148 27.427C69.5148 28.3135 69.735 29.0101 70.1754 29.5167C70.6158 30.0178 71.2139 30.2684 71.9696 30.2684Z" fill="#0E0E0E"/>
<path d="M76.5131 30.2353L77.6875 29.2359C77.9811 29.6489 78.2991 29.9407 78.6417 30.1114C78.9842 30.2821 79.3702 30.3675 79.7997 30.3675C80.2184 30.3675 80.5555 30.2739 80.811 30.0867C81.0665 29.8994 81.1943 29.6296 81.1943 29.2772C81.1943 29.0129 81.0774 28.7843 80.8436 28.5916C80.6153 28.3989 80.251 28.2557 79.7508 28.1621C78.6743 27.9584 77.924 27.6417 77.4999 27.2122C77.0813 26.7827 76.872 26.2486 76.872 25.6098C76.872 24.8168 77.152 24.1808 77.712 23.7017C78.272 23.2172 78.9842 22.9749 79.8487 22.9749C80.4522 22.9749 81.0067 23.0823 81.5124 23.297C82.0234 23.5118 82.4285 23.8422 82.7275 24.2882L81.5695 25.2546C81.3357 24.9738 81.0801 24.7673 80.8028 24.6351C80.5256 24.4975 80.1994 24.4286 79.8242 24.4286C79.4327 24.4286 79.1228 24.514 78.8945 24.6847C78.6716 24.8554 78.5601 25.0949 78.5601 25.4033C78.5601 25.6786 78.6661 25.8961 78.8782 26.0558C79.0956 26.2155 79.5089 26.3532 80.1178 26.4688C81.0529 26.634 81.7516 26.9314 82.2137 27.3609C82.6759 27.7904 82.9069 28.3741 82.9069 29.112C82.9069 29.96 82.6052 30.6263 82.0017 31.1109C81.4036 31.59 80.6642 31.8295 79.7834 31.8295C79.0331 31.8295 78.3807 31.6891 77.8261 31.4082C77.2716 31.1274 76.8339 30.7364 76.5131 30.2353Z" fill="#0E0E0E"/>
<path d="M87.4586 31.8295C86.1374 31.8295 85.0881 31.4358 84.3106 30.6483C83.5332 29.8609 83.1444 28.8009 83.1444 27.4683C83.1498 26.1192 83.5631 25.0343 84.384 24.2139C85.205 23.3879 86.2706 22.9749 87.5809 22.9749C88.8967 22.9749 89.9351 23.3796 90.6963 24.1891C91.4575 24.9986 91.838 26.0448 91.838 27.3279C91.838 28.6384 91.4357 29.7177 90.631 30.5657C89.8318 31.4082 88.7743 31.8295 87.4586 31.8295ZM87.532 30.2684C88.2823 30.2684 88.864 30.0096 89.2773 29.4919C89.6905 28.9688 89.8971 28.264 89.8971 27.3774C89.8971 26.5239 89.6877 25.8383 89.2691 25.3207C88.8559 24.7976 88.2769 24.536 87.532 24.536C86.7871 24.536 86.1918 24.8058 85.746 25.3455C85.3001 25.8796 85.0772 26.5734 85.0772 27.427C85.0772 28.3135 85.2974 29.0101 85.7378 29.5167C86.1782 30.0178 86.7763 30.2684 87.532 30.2684Z" fill="#0E0E0E"/>
<path d="M97.1074 20.7612C96.966 20.6676 96.8192 20.596 96.667 20.5465C96.5202 20.4914 96.3571 20.4639 96.1777 20.4639C95.8188 20.4639 95.5443 20.5767 95.354 20.8025C95.1691 21.0228 95.0767 21.3559 95.0767 21.802V23.1731H97.0095V24.6764H95.0767V31.6313H93.1846V24.6764H91.7656V23.1731H93.1846V21.7854C93.1846 20.9044 93.4402 20.2078 93.9512 19.6957C94.4678 19.1781 95.1854 18.9193 96.1043 18.9193C96.4142 18.9193 96.7159 18.9578 97.0095 19.0349C97.3086 19.1065 97.5994 19.2194 97.8821 19.3736L97.1074 20.7612Z" fill="#0E0E0E"/>
<path d="M102.23 31.0613C101.98 31.3036 101.689 31.4908 101.357 31.623C101.026 31.7552 100.653 31.8212 100.24 31.8212C99.4462 31.8212 98.8455 31.6203 98.4377 31.2183C98.0354 30.8108 97.8342 30.2161 97.8342 29.4341V24.6764H96.4315V23.1731H97.8342V21.0999L99.7262 20.7612V23.1731H101.855V24.6764H99.7262V29.368C99.7262 29.704 99.7915 29.9517 99.922 30.1114C100.058 30.2711 100.262 30.351 100.534 30.351C100.675 30.351 100.814 30.3234 100.95 30.2684C101.085 30.2133 101.23 30.1059 101.382 29.9462L102.23 31.0613Z" fill="#0E0E0E"/>
<path d="M8.3511 12.6837V27.5209C8.3511 29.791 10.1681 31.6313 12.4094 31.6313H26.9599C29.2012 31.6313 31.0181 29.791 31.0181 27.5209V12.6837C31.0181 12.13 30.575 11.6812 30.0283 11.6812H9.34092C8.79426 11.6812 8.3511 12.13 8.3511 12.6837Z" fill="url(#paint0_linear_18_8)"/>
<path d="M19.3382 16.8943H14.9829V21.3054H19.3382V16.8943Z" fill="#F25022"/>
<path d="M24.4358 16.8943H20.0806V21.3054H24.4358V16.8943Z" fill="#7FBA00"/>
<path d="M19.3382 22.1074H14.9829V26.5184H19.3382V22.1074Z" fill="#00A4EF"/>
<path d="M24.4358 22.1074H20.0806V26.5184H24.4358V22.1074Z" fill="#FFB900"/>
<path d="M14.9829 8.72377C14.1631 8.72377 13.4985 9.39715 13.4989 10.2275L13.5 12.4845C13.5002 12.8991 13.8321 13.2351 14.2415 13.2351C14.651 13.2351 14.9829 12.8989 14.9829 12.4841V8.72377Z" fill="url(#paint1_linear_18_8)"/>
<path d="M24.4358 8.72377C25.2558 8.72377 25.9205 9.39704 25.9205 10.2275V12.4832C25.9205 12.8985 25.5882 13.2351 25.1782 13.2351C24.7682 13.2351 24.4358 12.8985 24.4358 12.4832V8.72377Z" fill="url(#paint2_linear_18_8)"/>
<path d="M24.4358 8.72377H14.9829L14.9829 10.2275H24.4358L24.4358 8.72377Z" fill="url(#paint3_linear_18_8)"/>
<defs>
<linearGradient id="paint0_linear_18_8" x1="55.5" y1="0.265625" x2="55.5" y2="40.2656" gradientUnits="userSpaceOnUse">
<stop stop-color="#0D5EA6"/>
<stop offset="1" stop-color="#213E66"/>
</linearGradient>
<linearGradient id="paint1_linear_18_8" x1="55.4731" y1="0.265625" x2="55.4731" y2="40.2656" gradientUnits="userSpaceOnUse">
<stop stop-color="#30D9FB"/>
<stop offset="1" stop-color="#0095D5"/>
</linearGradient>
<linearGradient id="paint2_linear_18_8" x1="55.5" y1="0.265625" x2="55.5" y2="40.2656" gradientUnits="userSpaceOnUse">
<stop stop-color="#30D9FB"/>
<stop offset="1" stop-color="#0095D5"/>
</linearGradient>
<linearGradient id="paint3_linear_18_8" x1="19.7094" y1="8.72377" x2="19.7094" y2="10.2275" gradientUnits="userSpaceOnUse">
<stop stop-color="#23BAFA"/>
<stop offset="1" stop-color="#1091E7"/>
</linearGradient>
</defs>
</svg>
